<?xml version="1.0" standalone="no"?>
<!DOCTYPE svg PUBLIC "-//W3C//DTD SVG 1.1//EN" "http://www.w3.org/Graphics/SVG/1.1/DTD/svg11.dtd">
<svg width="100%" height="100%" viewBox="0 0 140 140" version="1.1" xmlns="http://www.w3.org/2000/svg" xmlns:xlink="http://www.w3.org/1999/xlink" xml:space="preserve" style="fill-rule:evenodd;clip-rule:evenodd;stroke-linejoin:round;stroke-miterlimit:1.41421;">
    <g transform="matrix(1,0,0,1,-57.331,-8.965)">
        <path d="M127.718,18.966L128.105,18.97L128.492,18.976L128.878,18.985L129.263,18.996L129.647,19.009L130.031,19.025L130.415,19.043L130.798,19.064L131.18,19.087L131.561,19.112L131.942,19.14L132.323,19.17L132.702,19.203L133.081,19.238L133.459,19.275L133.837,19.315L134.214,19.356L134.59,19.401L134.966,19.447L135.341,19.496L135.715,19.547L136.088,19.601L136.461,19.657L136.833,19.715L137.204,19.775L137.574,19.838L137.944,19.903L138.313,19.97L138.681,20.039L139.048,20.111L139.415,20.185L139.781,20.261L140.146,20.339L140.51,20.42L140.873,20.503L141.235,20.588L141.597,20.675L141.958,20.764L142.318,20.856L142.677,20.949L143.035,21.045L143.392,21.143L143.748,21.243L144.104,21.345L144.459,21.45L144.812,21.556L145.165,21.665L145.517,21.776L145.868,21.888L146.218,22.003L146.567,22.12L146.915,22.239L147.262,22.361L147.608,22.484L147.953,22.609L148.297,22.736L148.64,22.866L148.983,22.997L149.324,23.131L149.664,23.266L150.003,23.403L150.341,23.543L150.678,23.684L151.014,23.828L151.349,23.973L151.683,24.121L152.016,24.27L152.347,24.421L152.678,24.574L153.008,24.73L153.336,24.887L153.663,25.046L153.99,25.207L154.315,25.37L154.639,25.535L154.962,25.701L155.283,25.87L155.604,26.04L155.923,26.213L156.242,26.387L156.559,26.563L156.875,26.741L157.189,26.921L157.503,27.102L157.815,27.286L158.126,27.471L158.436,27.658L158.745,27.847L159.052,28.038L159.358,28.23L159.663,28.425L159.967,28.621L160.269,28.818L160.57,29.018L160.87,29.219L161.169,29.422L161.466,29.627L161.762,29.834L162.057,30.042L162.35,30.252L162.642,30.464L162.933,30.677L163.223,30.893L163.511,31.109L163.797,31.328L164.083,31.548L164.367,31.77L164.649,31.994L164.931,32.219L165.21,32.446L165.489,32.674L165.766,32.904L166.042,33.136L166.316,33.369L166.589,33.604L166.86,33.841L167.13,34.079L167.399,34.319L167.666,34.56L167.931,34.803L168.196,35.047L168.458,35.293L168.72,35.541L168.979,35.79L169.237,36.041L169.494,36.293L169.749,36.547L170.003,36.802L170.255,37.059L170.506,37.317L170.755,37.576L171.003,37.838L171.249,38.1L171.493,38.365L171.736,38.63L171.977,38.897L172.217,39.166L172.455,39.436L172.692,39.707L172.927,39.98L173.16,40.254L173.392,40.53L173.622,40.807L173.85,41.086L174.077,41.365L174.302,41.647L174.526,41.929L174.748,42.213L174.968,42.499L175.187,42.785L175.403,43.073L175.619,43.363L175.832,43.654L176.044,43.946L176.254,44.239L176.462,44.534L176.669,44.83L176.874,45.127L177.077,45.426L177.278,45.726L177.478,46.027L177.675,46.329L177.871,46.633L178.066,46.938L178.258,47.244L178.449,47.551L178.638,47.86L178.825,48.17L179.01,48.481L179.194,48.793L179.375,49.107L179.555,49.421L179.733,49.737L179.909,50.054L180.083,50.373L180.256,50.692L180.426,51.013L180.595,51.334L180.761,51.657L180.926,51.981L181.089,52.306L181.25,52.633L181.409,52.96L181.566,53.288L181.722,53.618L181.875,53.949L182.026,54.28L182.175,54.613L182.323,54.947L182.468,55.282L182.612,55.618L182.753,55.955L182.893,56.293L183.03,56.632L183.165,56.972L183.299,57.313L183.43,57.656L183.56,57.999L183.687,58.343L183.812,58.688L183.935,59.034L184.057,59.381L184.176,59.729L184.293,60.078L184.408,60.428L184.52,60.779L184.631,61.131L184.74,61.484L184.846,61.837L184.951,62.192L185.053,62.548L185.153,62.904L185.251,63.261L185.347,63.619L185.44,63.978L185.532,64.338L185.621,64.699L185.708,65.061L185.793,65.423L185.876,65.786L185.957,66.15L186.035,66.515L186.111,66.881L186.185,67.248L186.257,67.615L186.326,67.983L186.393,68.352L186.458,68.722L186.521,69.092L186.581,69.463L186.639,69.835L186.695,70.208L186.749,70.581L186.8,70.955L186.849,71.33L186.895,71.706L186.94,72.082L186.981,72.459L187.021,72.837L187.058,73.215L187.093,73.594L187.126,73.973L187.156,74.354L187.184,74.735L187.209,75.116L187.232,75.498L187.253,75.881L187.271,76.265L187.287,76.649L187.3,77.033L187.311,77.418L187.32,77.804L187.326,78.191L187.33,78.578L187.331,78.965L187.33,79.352L187.326,79.739L187.32,80.126L187.311,80.512L187.3,80.897L187.287,81.281L187.271,81.665L187.253,82.049L187.232,82.432L187.209,82.814L187.184,83.195L187.156,83.576L187.126,83.957L187.093,84.336L187.058,84.715L187.021,85.093L186.981,85.471L186.94,85.848L186.895,86.224L186.849,86.6L186.8,86.975L186.749,87.349L186.695,87.722L186.639,88.095L186.581,88.467L186.521,88.838L186.458,89.208L186.393,89.578L186.326,89.947L186.257,90.315L186.185,90.682L186.111,91.049L186.035,91.415L185.957,91.78L185.876,92.144L185.793,92.507L185.708,92.869L185.621,93.231L185.532,93.592L185.44,93.952L185.347,94.311L185.251,94.669L185.153,95.026L185.053,95.382L184.951,95.738L184.846,96.093L184.74,96.446L184.631,96.799L184.52,97.151L184.408,97.502L184.293,97.852L184.176,98.201L184.057,98.549L183.935,98.896L183.812,99.242L183.687,99.587L183.56,99.931L183.43,100.274L183.299,100.617L183.165,100.958L183.03,101.298L182.893,101.637L182.753,101.975L182.612,102.312L182.468,102.648L182.323,102.983L182.175,103.317L182.026,103.65L181.875,103.981L181.722,104.312L181.566,104.642L181.409,104.97L181.25,105.297L181.089,105.624L180.926,105.949L180.761,106.273L180.595,106.596L180.426,106.917L180.256,107.238L180.083,107.557L179.909,107.876L179.733,108.193L179.555,108.509L179.375,108.823L179.194,109.137L179.01,109.449L178.825,109.76L178.638,110.07L178.449,110.379L178.258,110.686L178.066,110.992L177.871,111.297L177.675,111.601L177.478,111.903L177.278,112.204L177.077,112.504L176.874,112.803L176.669,113.1L176.462,113.396L176.254,113.691L176.044,113.984L175.832,114.276L175.619,114.567L175.403,114.857L175.187,115.145L174.968,115.431L174.748,115.717L174.526,116.001L174.302,116.283L174.077,116.565L173.85,116.844L173.622,117.123L173.392,117.4L173.16,117.676L172.927,117.95L172.692,118.223L172.455,118.494L172.217,118.764L171.977,119.033L171.736,119.3L171.493,119.565L171.249,119.83L171.003,120.092L170.755,120.354L170.506,120.613L170.255,120.872L170.003,121.128L169.749,121.383L169.494,121.637L169.238,121.889L168.979,122.14L168.72,122.389L168.458,122.637L168.196,122.883L167.931,123.127L167.666,123.37L167.399,123.611L167.13,123.851L166.86,124.089L166.589,124.326L166.316,124.561L166.042,124.794L165.766,125.026L165.489,125.256L165.21,125.484L164.931,125.711L164.649,125.936L164.367,126.16L164.083,126.382L163.797,126.602L163.511,126.821L163.223,127.037L162.933,127.253L162.642,127.466L162.35,127.678L162.057,127.888L161.762,128.096L161.466,128.303L161.169,128.508L160.87,128.711L160.57,128.912L160.269,129.112L159.967,129.309L159.663,129.505L159.358,129.7L159.052,129.892L158.745,130.083L158.436,130.272L158.126,130.459L157.815,130.644L157.503,130.828L157.189,131.009L156.875,131.189L156.559,131.367L156.242,131.543L155.923,131.717L155.604,131.89L155.283,132.06L154.962,132.229L154.639,132.395L154.315,132.56L153.99,132.723L153.663,132.884L153.336,133.043L153.008,133.2L152.678,133.356L152.347,133.509L152.016,133.66L151.683,133.809L151.349,133.957L151.014,134.102L150.678,134.246L150.341,134.387L150.003,134.527L149.664,134.664L149.324,134.799L148.983,134.933L148.64,135.064L148.297,135.194L147.953,135.321L147.608,135.446L147.262,135.569L146.915,135.691L146.567,135.81L146.218,135.927L145.868,136.042L145.517,136.154L145.165,136.265L144.812,136.374L144.459,136.48L144.104,136.585L143.748,136.687L143.392,136.787L143.035,136.885L142.677,136.981L142.318,137.074L141.958,137.166L141.597,137.255L141.235,137.342L140.873,137.427L140.51,137.51L140.146,137.591L139.781,137.669L139.415,137.745L139.048,137.819L138.681,137.891L138.313,137.96L137.944,138.027L137.574,138.092L137.204,138.155L136.833,138.215L136.461,138.273L136.088,138.329L135.715,138.383L135.341,138.434L134.966,138.483L134.59,138.529L134.214,138.574L133.837,138.615L133.459,138.655L133.081,138.692L132.702,138.727L132.323,138.76L131.942,138.79L131.561,138.818L131.18,138.843L130.798,138.866L130.415,138.887L130.031,138.905L129.647,138.921L129.263,138.934L128.878,138.945L128.492,138.954L128.105,138.96L127.718,138.964L127.331,138.965L126.944,138.964L126.557,138.96L126.17,138.954L125.784,138.945L125.399,138.934L125.015,138.921L124.631,138.905L124.247,138.887L123.864,138.866L123.482,138.843L123.101,138.818L122.72,138.79L122.339,138.76L121.96,138.727L121.581,138.692L121.203,138.655L120.825,138.615L120.448,138.574L120.072,138.529L119.696,138.483L119.321,138.434L118.947,138.383L118.574,138.329L118.201,138.273L117.829,138.215L117.458,138.155L117.088,138.092L116.718,138.027L116.349,137.96L115.981,137.891L115.614,137.819L115.247,137.745L114.881,137.669L114.516,137.591L114.152,137.51L113.789,137.427L113.427,137.342L113.065,137.255L112.704,137.166L112.344,137.074L111.985,136.981L111.627,136.885L111.27,136.787L110.914,136.687L110.558,136.585L110.203,136.48L109.85,136.374L109.497,136.265L109.145,136.154L108.794,136.042L108.444,135.927L108.095,135.81L107.747,135.691L107.4,135.569L107.054,135.446L106.709,135.321L106.365,135.194L106.022,135.064L105.679,134.933L105.338,134.799L104.998,134.664L104.659,134.527L104.321,134.387L103.984,134.246L103.648,134.102L103.313,133.957L102.979,133.809L102.646,133.66L102.315,133.509L101.984,133.356L101.654,133.2L101.326,133.043L100.999,132.884L100.672,132.723L100.347,132.56L100.023,132.395L99.7,132.229L99.379,132.06L99.058,131.89L98.739,131.717L98.42,131.543L98.103,131.367L97.787,131.189L97.473,131.009L97.159,130.828L96.847,130.644L96.536,130.459L96.226,130.272L95.917,130.083L95.61,129.892L95.304,129.7L94.999,129.505L94.695,129.309L94.393,129.112L94.092,128.912L93.792,128.711L93.493,128.508L93.196,128.303L92.9,128.096L92.605,127.888L92.312,127.678L92.02,127.466L91.729,127.253L91.439,127.037L91.151,126.821L90.865,126.602L90.579,126.382L90.295,126.16L90.013,125.936L89.731,125.711L89.452,125.484L89.173,125.256L88.896,125.026L88.62,124.794L88.346,124.561L88.073,124.326L87.802,124.089L87.532,123.851L87.263,123.611L86.996,123.37L86.731,123.127L86.466,122.883L86.204,122.637L85.942,122.389L85.683,122.14L85.425,121.889L85.168,121.637L84.913,121.383L84.659,121.128L84.407,120.871L84.156,120.613L83.907,120.354L83.659,120.092L83.413,119.83L83.169,119.565L82.926,119.3L82.685,119.033L82.445,118.764L82.207,118.494L81.97,118.223L81.735,117.95L81.502,117.676L81.27,117.4L81.04,117.123L80.812,116.844L80.585,116.565L80.36,116.283L80.136,116.001L79.914,115.717L79.694,115.431L79.475,115.145L79.259,114.857L79.043,114.567L78.83,114.276L78.618,113.984L78.408,113.691L78.2,113.396L77.993,113.1L77.788,112.803L77.585,112.504L77.384,112.204L77.184,111.903L76.987,111.601L76.791,111.297L76.596,110.992L76.404,110.686L76.213,110.379L76.024,110.07L75.837,109.76L75.652,109.449L75.468,109.137L75.287,108.823L75.107,108.509L74.929,108.193L74.753,107.876L74.579,107.557L74.406,107.238L74.236,106.917L74.067,106.596L73.901,106.273L73.736,105.949L73.573,105.624L73.412,105.297L73.253,104.97L73.096,104.642L72.94,104.312L72.787,103.981L72.636,103.65L72.487,103.317L72.339,102.983L72.194,102.648L72.05,102.312L71.909,101.975L71.769,101.637L71.632,101.298L71.497,100.958L71.363,100.617L71.232,100.274L71.102,99.931L70.975,99.587L70.85,99.242L70.727,98.896L70.605,98.549L70.486,98.201L70.369,97.852L70.254,97.502L70.142,97.151L70.031,96.799L69.922,96.446L69.816,96.093L69.711,95.738L69.609,95.382L69.509,95.026L69.411,94.669L69.315,94.311L69.222,93.952L69.13,93.592L69.041,93.231L68.954,92.869L68.869,92.507L68.786,92.144L68.705,91.78L68.627,91.415L68.551,91.049L68.477,90.682L68.405,90.315L68.336,89.947L68.269,89.578L68.204,89.208L68.141,88.838L68.081,88.467L68.023,88.095L67.967,87.722L67.913,87.349L67.862,86.975L67.813,86.6L67.767,86.224L67.722,85.848L67.681,85.471L67.641,85.093L67.604,84.715L67.569,84.336L67.536,83.957L67.506,83.576L67.478,83.195L67.453,82.814L67.43,82.432L67.409,82.049L67.391,81.665L67.375,81.281L67.362,80.897L67.351,80.512L67.342,80.126L67.336,79.739L67.332,79.352L67.331,78.965L67.332,78.578L67.336,78.191L67.342,77.804L67.351,77.418L67.362,77.033L67.375,76.649L67.391,76.265L67.409,75.881L67.43,75.498L67.453,75.116L67.478,74.735L67.506,74.354L67.536,73.973L67.569,73.594L67.604,73.215L67.641,72.837L67.681,72.459L67.722,72.082L67.767,71.706L67.813,71.33L67.862,70.955L67.913,70.581L67.967,70.208L68.023,69.835L68.081,69.463L68.141,69.092L68.204,68.722L68.269,68.352L68.336,67.983L68.405,67.615L68.477,67.248L68.551,66.881L68.627,66.515L68.705,66.15L68.786,65.786L68.869,65.423L68.954,65.061L69.041,64.699L69.13,64.338L69.222,63.978L69.315,63.619L69.411,63.261L69.509,62.904L69.609,62.548L69.711,62.192L69.816,61.837L69.922,61.484L70.031,61.131L70.142,60.779L70.254,60.428L70.369,60.078L70.486,59.729L70.605,59.381L70.727,59.034L70.85,58.688L70.975,58.343L71.102,57.999L71.232,57.656L71.363,57.313L71.497,56.972L71.632,56.632L71.769,56.293L71.909,55.955L72.05,55.618L72.194,55.282L72.339,54.947L72.487,54.613L72.636,54.28L72.787,53.949L72.94,53.618L73.096,53.288L73.253,52.96L73.412,52.633L73.573,52.306L73.736,51.981L73.901,51.657L74.067,51.334L74.236,51.013L74.406,50.692L74.579,50.373L74.753,50.054L74.929,49.737L75.107,49.421L75.287,49.107L75.468,48.793L75.652,48.481L75.837,48.17L76.024,47.86L76.213,47.551L76.404,47.244L76.596,46.938L76.791,46.633L76.987,46.329L77.184,46.027L77.384,45.726L77.585,45.426L77.788,45.127L77.993,44.83L78.2,44.534L78.408,44.239L78.618,43.946L78.83,43.654L79.043,43.363L79.259,43.073L79.475,42.785L79.694,42.499L79.914,42.213L80.136,41.929L80.36,41.647L80.585,41.365L80.812,41.086L81.04,40.807L81.27,40.53L81.502,40.254L81.735,39.98L81.97,39.707L82.207,39.436L82.445,39.166L82.685,38.897L82.926,38.63L83.169,38.365L83.413,38.1L83.659,37.838L83.907,37.576L84.156,37.317L84.407,37.059L84.659,36.802L84.913,36.547L85.168,36.293L85.425,36.041L85.683,35.79L85.942,35.541L86.204,35.293L86.466,35.047L86.731,34.803L86.996,34.56L87.263,34.319L87.532,34.079L87.802,33.841L88.073,33.604L88.346,33.369L88.62,33.136L88.896,32.904L89.173,32.674L89.452,32.446L89.731,32.219L90.013,31.994L90.295,31.77L90.579,31.548L90.865,31.328L91.151,31.109L91.439,30.893L91.729,30.677L92.02,30.464L92.312,30.252L92.605,30.042L92.9,29.834L93.196,29.627L93.493,29.422L93.792,29.219L94.092,29.018L94.393,28.818L94.695,28.621L94.999,28.425L95.304,28.23L95.61,28.038L95.917,27.847L96.226,27.658L96.536,27.471L96.847,27.286L97.159,27.102L97.473,26.921L97.787,26.741L98.103,26.563L98.42,26.387L98.739,26.213L99.058,26.04L99.379,25.87L99.7,25.701L100.023,25.535L100.347,25.37L100.672,25.207L100.999,25.046L101.326,24.887L101.654,24.73L101.984,24.574L102.315,24.421L102.646,24.27L102.979,24.121L103.313,23.973L103.648,23.828L103.984,23.684L104.321,23.543L104.659,23.403L104.998,23.266L105.338,23.131L105.679,22.997L106.022,22.866L106.365,22.736L106.709,22.609L107.054,22.484L107.4,22.361L107.747,22.239L108.095,22.12L108.444,22.003L108.794,21.888L109.145,21.776L109.497,21.665L109.85,21.556L110.203,21.45L110.558,21.345L110.914,21.243L111.27,21.143L111.627,21.045L111.985,20.949L112.344,20.856L112.704,20.764L113.065,20.675L113.427,20.588L113.789,20.503L114.152,20.42L114.516,20.339L114.881,20.261L115.247,20.185L115.614,20.111L115.981,20.039L116.349,19.97L116.718,19.903L117.088,19.838L117.458,19.775L117.829,19.715L118.201,19.657L118.574,19.601L118.947,19.547L119.321,19.496L119.696,19.447L120.072,19.401L120.448,19.356L120.825,19.315L121.203,19.275L121.581,19.238L121.96,19.203L122.339,19.17L122.72,19.14L123.101,19.112L123.482,19.087L123.864,19.064L124.247,19.043L124.631,19.025L125.015,19.009L125.399,18.996L125.784,18.985L126.17,18.976L126.557,18.97L126.944,18.966L127.331,18.965L127.718,18.966ZM126.975,23.966L126.62,23.97L126.265,23.975L125.911,23.983L125.558,23.993L125.205,24.005L124.852,24.02L124.501,24.037L124.149,24.056L123.799,24.077L123.449,24.1L123.1,24.126L122.751,24.153L122.403,24.183L122.055,24.215L121.708,24.249L121.362,24.286L121.017,24.324L120.672,24.365L120.327,24.407L119.984,24.452L119.641,24.499L119.299,24.548L118.957,24.599L118.616,24.653L118.276,24.708L117.937,24.765L117.598,24.825L117.26,24.886L116.923,24.95L116.586,25.016L116.251,25.083L115.915,25.153L115.581,25.225L115.248,25.299L114.915,25.374L114.583,25.452L114.252,25.532L113.921,25.614L113.591,25.698L113.263,25.783L112.935,25.871L112.607,25.961L112.281,26.053L111.955,26.146L111.63,26.242L111.306,26.339L110.983,26.439L110.661,26.54L110.34,26.644L110.019,26.749L109.699,26.856L109.38,26.965L109.062,27.076L108.745,27.189L108.429,27.304L108.114,27.42L107.8,27.539L107.486,27.659L107.174,27.782L106.862,27.906L106.551,28.032L106.242,28.159L105.933,28.289L105.625,28.42L105.318,28.554L105.012,28.689L104.707,28.825L104.403,28.964L104.1,29.104L103.798,29.247L103.497,29.391L103.197,29.536L102.898,29.684L102.601,29.833L102.304,29.984L102.008,30.137L101.713,30.292L101.419,30.448L101.126,30.606L100.835,30.765L100.544,30.927L100.255,31.09L99.966,31.255L99.679,31.421L99.392,31.589L99.107,31.759L98.823,31.931L98.54,32.104L98.258,32.279L97.978,32.455L97.698,32.633L97.42,32.813L97.142,32.994L96.866,33.177L96.591,33.362L96.318,33.548L96.045,33.736L95.774,33.926L95.503,34.117L95.234,34.309L94.966,34.503L94.7,34.699L94.434,34.896L94.17,35.095L93.907,35.296L93.646,35.498L93.385,35.701L93.126,35.906L92.868,36.113L92.611,36.321L92.356,36.53L92.102,36.741L91.849,36.954L91.597,37.168L91.347,37.383L91.098,37.6L90.851,37.819L90.604,38.039L90.359,38.26L90.116,38.483L89.873,38.707L89.632,38.933L89.393,39.16L89.155,39.388L88.918,39.618L88.682,39.849L88.448,40.082L88.215,40.316L87.984,40.552L87.754,40.789L87.526,41.027L87.299,41.266L87.073,41.507L86.849,41.75L86.626,41.993L86.405,42.238L86.185,42.485L85.966,42.732L85.749,42.981L85.534,43.231L85.32,43.483L85.107,43.736L84.896,43.99L84.687,44.245L84.479,44.502L84.272,44.76L84.067,45.019L83.864,45.28L83.662,45.541L83.461,45.804L83.262,46.068L83.065,46.334L82.869,46.6L82.675,46.868L82.483,47.137L82.292,47.408L82.102,47.679L81.914,47.952L81.728,48.225L81.543,48.5L81.36,48.776L81.179,49.054L80.999,49.332L80.821,49.612L80.645,49.892L80.47,50.174L80.297,50.457L80.125,50.741L79.955,51.026L79.787,51.313L79.621,51.6L79.456,51.889L79.293,52.178L79.131,52.469L78.972,52.76L78.814,53.053L78.658,53.347L78.503,53.642L78.35,53.938L78.199,54.235L78.05,54.532L77.902,54.831L77.757,55.131L77.613,55.432L77.47,55.734L77.33,56.037L77.191,56.341L77.055,56.646L76.92,56.952L76.786,57.259L76.655,57.567L76.525,57.876L76.398,58.185L76.272,58.496L76.148,58.808L76.025,59.12L75.905,59.434L75.786,59.748L75.67,60.063L75.555,60.379L75.442,60.696L75.331,61.014L75.222,61.333L75.115,61.653L75.01,61.974L74.906,62.295L74.805,62.617L74.705,62.94L74.608,63.264L74.512,63.589L74.419,63.915L74.327,64.241L74.237,64.569L74.149,64.897L74.064,65.225L73.98,65.555L73.898,65.886L73.818,66.217L73.74,66.549L73.665,66.882L73.591,67.215L73.519,67.549L73.449,67.885L73.382,68.22L73.316,68.557L73.252,68.894L73.191,69.232L73.131,69.571L73.074,69.91L73.019,70.25L72.965,70.591L72.914,70.933L72.865,71.275L72.818,71.618L72.773,71.961L72.731,72.306L72.69,72.651L72.652,72.996L72.615,73.342L72.581,73.689L72.549,74.037L72.519,74.385L72.492,74.734L72.466,75.083L72.443,75.433L72.422,75.783L72.403,76.135L72.386,76.486L72.371,76.839L72.359,77.192L72.349,77.545L72.341,77.899L72.336,78.254L72.332,78.609L72.331,78.965L72.332,79.321L72.336,79.676L72.341,80.031L72.349,80.385L72.359,80.738L72.371,81.091L72.386,81.444L72.403,81.795L72.422,82.147L72.443,82.497L72.466,82.847L72.492,83.196L72.519,83.545L72.549,83.893L72.581,84.241L72.615,84.588L72.652,84.934L72.69,85.279L72.731,85.624L72.773,85.969L72.818,86.312L72.865,86.655L72.914,86.997L72.965,87.339L73.019,87.68L73.074,88.02L73.131,88.359L73.191,88.698L73.252,89.036L73.316,89.373L73.382,89.71L73.449,90.045L73.519,90.38L73.591,90.715L73.665,91.048L73.74,91.381L73.818,91.713L73.898,92.044L73.98,92.375L74.064,92.705L74.149,93.033L74.237,93.361L74.327,93.689L74.419,94.015L74.512,94.341L74.608,94.666L74.705,94.99L74.805,95.313L74.906,95.635L75.01,95.956L75.115,96.277L75.222,96.597L75.331,96.916L75.442,97.233L75.555,97.551L75.67,97.867L75.786,98.182L75.905,98.496L76.025,98.81L76.148,99.122L76.272,99.434L76.398,99.745L76.525,100.054L76.655,100.363L76.786,100.671L76.92,100.978L77.055,101.284L77.191,101.589L77.33,101.893L77.47,102.196L77.613,102.498L77.757,102.799L77.902,103.099L78.05,103.398L78.199,103.695L78.35,103.992L78.503,104.288L78.658,104.583L78.814,104.877L78.972,105.17L79.131,105.461L79.293,105.752L79.456,106.041L79.621,106.33L79.787,106.617L79.955,106.904L80.125,107.189L80.297,107.473L80.47,107.756L80.645,108.038L80.821,108.318L80.999,108.598L81.179,108.876L81.36,109.154L81.543,109.43L81.728,109.705L81.914,109.978L82.102,110.251L82.292,110.522L82.483,110.793L82.675,111.062L82.869,111.33L83.065,111.596L83.262,111.862L83.461,112.126L83.662,112.389L83.864,112.65L84.067,112.911L84.272,113.17L84.479,113.428L84.687,113.685L84.896,113.94L85.107,114.194L85.32,114.447L85.534,114.699L85.749,114.949L85.966,115.198L86.185,115.445L86.405,115.692L86.626,115.937L86.849,116.18L87.073,116.423L87.299,116.664L87.526,116.903L87.754,117.141L87.984,117.378L88.215,117.614L88.448,117.848L88.682,118.081L88.918,118.312L89.155,118.542L89.393,118.77L89.632,118.997L89.873,119.223L90.116,119.447L90.359,119.67L90.604,119.891L90.851,120.111L91.098,120.33L91.347,120.547L91.597,120.762L91.849,120.976L92.102,121.189L92.356,121.4L92.611,121.609L92.868,121.817L93.126,122.024L93.385,122.229L93.646,122.432L93.907,122.634L94.17,122.835L94.434,123.034L94.7,123.231L94.966,123.427L95.234,123.621L95.503,123.813L95.774,124.004L96.045,124.194L96.318,124.382L96.591,124.568L96.866,124.753L97.142,124.936L97.42,125.117L97.698,125.297L97.978,125.475L98.258,125.651L98.54,125.826L98.823,125.999L99.107,126.171L99.392,126.341L99.679,126.509L99.966,126.675L100.255,126.84L100.544,127.003L100.835,127.165L101.126,127.324L101.419,127.482L101.713,127.638L102.008,127.793L102.304,127.946L102.601,128.097L102.898,128.246L103.197,128.394L103.497,128.539L103.798,128.683L104.1,128.826L104.403,128.966L104.707,129.105L105.012,129.241L105.318,129.376L105.625,129.51L105.933,129.641L106.242,129.771L106.551,129.898L106.862,130.024L107.174,130.148L107.486,130.271L107.8,130.391L108.114,130.51L108.429,130.626L108.745,130.741L109.062,130.854L109.38,130.965L109.699,131.074L110.019,131.181L110.34,131.286L110.661,131.39L110.983,131.491L111.306,131.591L111.63,131.688L111.955,131.784L112.281,131.877L112.607,131.969L112.935,132.059L113.263,132.147L113.591,132.232L113.921,132.316L114.252,132.398L114.583,132.478L114.915,132.556L115.248,132.631L115.581,132.705L115.916,132.777L116.251,132.847L116.586,132.914L116.923,132.98L117.26,133.044L117.598,133.105L117.937,133.165L118.276,133.222L118.616,133.277L118.957,133.331L119.299,133.382L119.641,133.431L119.984,133.478L120.327,133.523L120.672,133.565L121.017,133.606L121.362,133.644L121.708,133.681L122.055,133.715L122.403,133.747L122.751,133.777L123.1,133.804L123.449,133.83L123.799,133.853L124.149,133.874L124.501,133.893L124.852,133.91L125.205,133.925L125.558,133.937L125.911,133.947L126.265,133.955L126.62,133.96L126.975,133.964L127.331,133.965L127.687,133.964L128.042,133.96L128.397,133.955L128.751,133.947L129.104,133.937L129.457,133.925L129.81,133.91L130.161,133.893L130.513,133.874L130.863,133.853L131.213,133.83L131.562,133.804L131.911,133.777L132.259,133.747L132.607,133.715L132.954,133.681L133.3,133.644L133.645,133.606L133.99,133.565L134.335,133.523L134.678,133.478L135.021,133.431L135.363,133.382L135.705,133.331L136.046,133.277L136.386,133.222L136.725,133.165L137.064,133.105L137.402,133.044L137.739,132.98L138.076,132.914L138.411,132.847L138.746,132.777L139.081,132.705L139.414,132.631L139.747,132.556L140.079,132.478L140.41,132.398L140.741,132.316L141.071,132.232L141.399,132.147L141.727,132.059L142.055,131.969L142.381,131.877L142.707,131.784L143.032,131.688L143.356,131.591L143.679,131.491L144.001,131.39L144.322,131.286L144.643,131.181L144.963,131.074L145.282,130.965L145.599,130.854L145.917,130.741L146.233,130.626L146.548,130.51L146.862,130.391L147.176,130.271L147.488,130.148L147.8,130.024L148.111,129.898L148.42,129.771L148.729,129.641L149.037,129.51L149.344,129.376L149.65,129.241L149.955,129.105L150.259,128.966L150.562,128.826L150.864,128.683L151.165,128.539L151.465,128.394L151.764,128.246L152.061,128.097L152.358,127.946L152.654,127.793L152.949,127.638L153.243,127.482L153.536,127.324L153.827,127.165L154.118,127.003L154.407,126.84L154.696,126.675L154.983,126.509L155.27,126.341L155.555,126.171L155.839,125.999L156.122,125.826L156.404,125.651L156.684,125.475L156.964,125.297L157.242,125.117L157.52,124.936L157.796,124.753L158.071,124.568L158.344,124.382L158.617,124.194L158.888,124.004L159.159,123.813L159.428,123.621L159.696,123.427L159.962,123.231L160.227,123.034L160.492,122.835L160.755,122.634L161.016,122.432L161.277,122.229L161.536,122.024L161.794,121.817L162.051,121.609L162.306,121.4L162.56,121.189L162.813,120.976L163.065,120.762L163.315,120.547L163.564,120.33L163.811,120.111L164.058,119.891L164.303,119.67L164.546,119.447L164.789,119.223L165.03,118.997L165.269,118.77L165.507,118.542L165.744,118.312L165.98,118.081L166.214,117.848L166.447,117.614L166.678,117.378L166.908,117.141L167.136,116.903L167.363,116.664L167.589,116.423L167.813,116.18L168.036,115.937L168.257,115.692L168.477,115.445L168.696,115.198L168.913,114.949L169.128,114.699L169.342,114.447L169.555,114.194L169.766,113.94L169.975,113.685L170.183,113.428L170.39,113.17L170.595,112.911L170.798,112.65L171,112.389L171.201,112.126L171.4,111.861L171.597,111.596L171.793,111.33L171.987,111.062L172.179,110.793L172.37,110.522L172.56,110.251L172.748,109.978L172.934,109.705L173.119,109.43L173.302,109.154L173.483,108.876L173.663,108.598L173.841,108.318L174.017,108.038L174.192,107.756L174.365,107.473L174.537,107.189L174.707,106.904L174.875,106.617L175.041,106.33L175.206,106.041L175.369,105.752L175.531,105.461L175.69,105.17L175.848,104.877L176.004,104.583L176.159,104.288L176.312,103.992L176.463,103.695L176.612,103.398L176.76,103.099L176.905,102.799L177.049,102.498L177.192,102.196L177.332,101.893L177.471,101.589L177.607,101.284L177.742,100.978L177.876,100.671L178.007,100.363L178.137,100.054L178.264,99.745L178.39,99.434L178.514,99.122L178.637,98.81L178.757,98.496L178.876,98.182L178.992,97.867L179.107,97.551L179.22,97.233L179.331,96.916L179.44,96.597L179.547,96.277L179.652,95.956L179.756,95.635L179.857,95.313L179.957,94.99L180.054,94.666L180.15,94.341L180.243,94.015L180.335,93.689L180.425,93.361L180.513,93.033L180.598,92.705L180.682,92.375L180.764,92.044L180.844,91.713L180.922,91.381L180.997,91.048L181.071,90.715L181.143,90.38L181.213,90.045L181.28,89.71L181.346,89.373L181.41,89.036L181.471,88.698L181.531,88.359L181.588,88.02L181.643,87.68L181.697,87.339L181.748,86.997L181.797,86.655L181.844,86.312L181.889,85.969L181.931,85.624L181.972,85.279L182.01,84.934L182.047,84.588L182.081,84.241L182.113,83.893L182.143,83.545L182.17,83.196L182.196,82.847L182.219,82.497L182.24,82.147L182.259,81.795L182.276,81.444L182.291,81.091L182.303,80.738L182.313,80.385L182.321,80.031L182.326,79.676L182.33,79.321L182.331,78.965L182.33,78.609L182.326,78.254L182.321,77.899L182.313,77.545L182.303,77.192L182.291,76.839L182.276,76.486L182.259,76.135L182.24,75.783L182.219,75.433L182.196,75.083L182.17,74.734L182.143,74.385L182.113,74.037L182.081,73.689L182.047,73.342L182.01,72.996L181.972,72.651L181.931,72.306L181.889,71.961L181.844,71.618L181.797,71.275L181.748,70.933L181.697,70.591L181.643,70.25L181.588,69.91L181.531,69.571L181.471,69.232L181.41,68.894L181.346,68.557L181.28,68.22L181.213,67.885L181.143,67.55L181.071,67.215L180.997,66.882L180.922,66.549L180.844,66.217L180.764,65.886L180.682,65.555L180.598,65.225L180.513,64.897L180.425,64.569L180.335,64.241L180.243,63.915L180.15,63.589L180.054,63.264L179.957,62.94L179.857,62.617L179.756,62.295L179.652,61.974L179.547,61.653L179.44,61.333L179.331,61.014L179.22,60.696L179.107,60.379L178.992,60.063L178.876,59.748L178.757,59.434L178.637,59.12L178.514,58.808L178.39,58.496L178.264,58.185L178.137,57.876L178.007,57.567L177.876,57.259L177.742,56.952L177.607,56.646L177.471,56.341L177.332,56.037L177.192,55.734L177.049,55.432L176.905,55.131L176.76,54.831L176.612,54.532L176.463,54.235L176.312,53.938L176.159,53.642L176.004,53.347L175.848,53.053L175.69,52.76L175.531,52.469L175.369,52.178L175.206,51.889L175.041,51.6L174.875,51.313L174.707,51.026L174.537,50.741L174.365,50.457L174.192,50.174L174.017,49.892L173.841,49.612L173.663,49.332L173.483,49.054L173.302,48.776L173.119,48.5L172.934,48.225L172.748,47.952L172.56,47.679L172.37,47.408L172.179,47.137L171.987,46.868L171.793,46.6L171.597,46.334L171.4,46.068L171.201,45.804L171,45.541L170.798,45.28L170.595,45.019L170.39,44.76L170.183,44.502L169.975,44.245L169.766,43.99L169.555,43.736L169.342,43.483L169.128,43.231L168.913,42.981L168.696,42.732L168.477,42.485L168.257,42.238L168.036,41.993L167.813,41.75L167.589,41.507L167.363,41.266L167.136,41.027L166.908,40.789L166.678,40.552L166.447,40.316L166.214,40.082L165.98,39.849L165.744,39.618L165.507,39.388L165.269,39.16L165.03,38.933L164.789,38.707L164.546,38.483L164.303,38.26L164.058,38.039L163.811,37.819L163.564,37.6L163.315,37.383L163.065,37.168L162.813,36.954L162.56,36.741L162.306,36.53L162.051,36.321L161.794,36.113L161.536,35.906L161.277,35.701L161.016,35.498L160.755,35.296L160.492,35.095L160.228,34.896L159.962,34.699L159.696,34.503L159.428,34.309L159.159,34.117L158.888,33.926L158.617,33.736L158.344,33.548L158.071,33.362L157.796,33.177L157.52,32.994L157.242,32.813L156.964,32.633L156.684,32.455L156.404,32.279L156.122,32.104L155.839,31.931L155.555,31.759L155.27,31.589L154.983,31.421L154.696,31.255L154.407,31.09L154.118,30.927L153.827,30.765L153.536,30.606L153.243,30.448L152.949,30.292L152.654,30.137L152.358,29.984L152.061,29.833L151.764,29.684L151.465,29.536L151.165,29.391L150.864,29.247L150.562,29.104L150.259,28.964L149.955,28.825L149.65,28.689L149.344,28.554L149.037,28.42L148.729,28.289L148.42,28.159L148.111,28.032L147.8,27.906L147.488,27.782L147.176,27.659L146.862,27.539L146.548,27.42L146.233,27.304L145.917,27.189L145.599,27.076L145.282,26.965L144.963,26.856L144.643,26.749L144.322,26.644L144.001,26.54L143.679,26.439L143.356,26.339L143.032,26.242L142.707,26.146L142.381,26.053L142.055,25.961L141.727,25.871L141.399,25.783L141.071,25.698L140.741,25.614L140.41,25.532L140.079,25.452L139.747,25.374L139.414,25.299L139.081,25.225L138.746,25.153L138.411,25.083L138.076,25.016L137.739,24.95L137.402,24.886L137.064,24.825L136.725,24.765L136.386,24.708L136.046,24.653L135.705,24.599L135.363,24.548L135.021,24.499L134.678,24.452L134.335,24.407L133.99,24.365L133.645,24.324L133.3,24.286L132.954,24.249L132.607,24.215L132.259,24.183L131.911,24.153L131.562,24.126L131.213,24.1L130.863,24.077L130.513,24.056L130.161,24.037L129.81,24.02L129.457,24.005L129.104,23.993L128.751,23.983L128.397,23.975L128.042,23.97L127.687,23.966L127.331,23.965L126.975,23.966Z" style="fill:black;"/>
    </g>
    <g transform="matrix(1,0,0,1,33.5254,112.92)">
        <path d="M40.078,-85.84L34.805,-65.098L49.16,-65.098L54.492,-85.84L63.867,-85.84L58.535,-65.098L72.832,-65.098L72.832,-56.133L56.367,-56.133L50.625,-33.105L65.273,-33.105L65.273,-24.141L48.34,-24.141L42.246,0L32.871,0L39.023,-24.141L24.609,-24.141L18.457,0L9.141,0L15.234,-24.141L0.117,-24.141L0.117,-33.105L17.52,-33.105L23.262,-56.133L7.676,-56.133L7.676,-65.098L25.43,-65.098L30.703,-85.84L40.078,-85.84ZM46.992,-56.133L32.637,-56.133L26.895,-33.105L41.309,-33.105L46.992,-56.133Z" style="fill:black;fill-rule:nonzero;"/>
    </g>
</svg>
