<?xml version="1.0" standalone="no"?><!DOCTYPE svg PUBLIC "-//W3C//DTD SVG 1.1//EN" "http://www.w3.org/Graphics/SVG/1.1/DTD/svg11.dtd"><svg width="100%" height="100%" viewBox="0 0 270 185" version="1.1" xmlns="http://www.w3.org/2000/svg" xmlns:xlink="http://www.w3.org/1999/xlink" xml:space="preserve" style="fill-rule:evenodd;clip-rule:evenodd;stroke-linejoin:round;stroke-miterlimit:1.41421;"><g id="#000000ff"><path d="M236.5,41.716c0,-13.03 -0.01,-26.05 0.01,-39.08c2.75,-0.01 5.51,-0.01 8.27,-0.01c0.04,12.3 0,24.6 0.02,36.9c6.18,-1.64 12.34,-3.32 18.52,-4.96c0.01,6.86 0.01,13.72 0,20.59c-6.17,1.67 -12.36,3.31 -18.52,4.99c0,16.77 -0.01,33.55 0,50.32c6.18,-1.64 12.34,-3.32 18.52,-4.96c0.01,6.86 0,13.72 0,20.58c-6.17,1.68 -12.35,3.31 -18.52,4.99c-0.02,12.14 0,24.28 -0.01,36.42c-2.76,0 -5.53,0 -8.29,-0.01c-0.01,-11.44 0.01,-22.89 0,-34.33c-12.32,3.31 -24.63,6.62 -36.94,9.96c-0.01,13.04 0.01,26.07 -0.01,39.11c-2.78,0 -5.56,0 -8.34,0c-0.02,-12.3 0.01,-24.61 -0.01,-36.91c-6.16,1.64 -12.3,3.32 -18.46,4.95c-0.01,-6.9 -0.01,-13.8 0,-20.7c6.15,-1.68 12.31,-3.3 18.46,-4.98c0,-16.73 0.02,-33.47 0,-50.2c-6.16,1.63 -12.3,3.31 -18.46,4.95c-0.01,-6.87 -0.01,-13.73 0,-20.59c6.15,-1.68 12.31,-3.3 18.46,-4.98c0.01,-12.15 0,-24.31 0.01,-36.47c2.78,0 5.56,0 8.35,0.01c0.01,11.45 -0.01,22.91 0,34.37c12.32,-3.31 24.63,-6.62 36.94,-9.96M199.57,72.286c-0.02,16.74 -0.01,33.48 -0.01,50.22c12.32,-3.32 24.63,-6.64 36.94,-9.96c0,-16.74 0.01,-33.47 -0.01,-50.21c-12.31,3.3 -24.61,6.64 -36.92,9.95Z" style="fill:#000;fill-rule:nonzero;"/><path d="M49.64,12.436c14.64,-7.16 31.43,-9.11 47.52,-7.33c15.29,1.72 30.23,8.48 40.71,19.9c7.61,8.14 12.59,18.38 15.74,28.99c-7.32,1.74 -14.64,3.48 -21.97,5.2c-3.87,-12.44 -11.25,-24.65 -23.26,-30.64c-13.35,-6.58 -29.38,-6.01 -43.3,-1.54c-15.4,5.06 -26.15,19.01 -30.87,34.07c-5.42,17.27 -5.25,35.9 -2.15,53.59c2.48,14.26 9.52,28.14 21.54,36.63c13.16,9.65 30.88,11.34 46.39,7.41c11.88,-3.02 21.86,-11.61 27.4,-22.45c3.16,-5.87 5.21,-12.27 6.79,-18.73c7.44,1.9 14.9,3.74 22.33,5.7c-4.13,15.71 -11.67,31.2 -24.58,41.53c-13.32,10.95 -30.88,15.64 -47.94,15.1c-19.17,-0.19 -39.51,-5.51 -53.06,-19.84c-13.59,-14.72 -21.17,-34.3 -23.44,-54.04c-1.88,-18.53 -0.81,-37.82 6.31,-55.21c6.71,-16.6 19.77,-30.48 35.84,-38.34Z" style="fill:#000;fill-rule:nonzero;"/></g></svg>