<?xml version="1.0" standalone="no"?><!DOCTYPE svg PUBLIC "-//W3C//DTD SVG 1.1//EN" "http://www.w3.org/Graphics/SVG/1.1/DTD/svg11.dtd"><svg width="100%" height="100%" viewBox="0 0 355 660" version="1.1" xmlns="http://www.w3.org/2000/svg" xmlns:xlink="http://www.w3.org/1999/xlink" xml:space="preserve" style="fill-rule:evenodd;clip-rule:evenodd;stroke-linejoin:round;stroke-miterlimit:1.41421;"><g><path d="M117.151,349.592c0,0 -17.265,10.049 12.301,13.44c35.824,4.09 54.13,3.501 93.596,-3.959c0,0 10.397,6.504 24.892,12.137c-88.501,37.917 -200.296,-2.197 -130.789,-21.618Z" style="fill:#0074bd;"/><path d="M106.331,300.104c0,0 -19.367,14.339 10.221,17.397c38.271,3.951 68.483,4.275 120.792,-5.792c0,0 7.218,7.332 18.585,11.339c-106.986,31.294 -226.147,2.462 -149.598,-22.944Z" style="fill:#0074bd;"/><path d="M197.494,216.145c21.818,25.115 -5.721,47.697 -5.721,47.697c0,0 55.367,-28.577 29.945,-64.38c-23.752,-33.373 -41.962,-49.951 56.623,-107.124c0.001,0 -154.754,38.641 -80.847,123.807Z" style="fill:#ea2d2e;"/><path d="M314.542,386.202c0,0 12.781,10.536 -14.077,18.684c-51.071,15.469 -212.604,20.135 -257.47,0.619c-16.117,-7.02 14.121,-16.75 23.635,-18.805c9.92,-2.146 15.584,-1.754 15.584,-1.754c-17.937,-12.631 -115.935,24.807 -49.772,35.544c180.429,29.246 328.895,-13.173 282.1,-34.288Z" style="fill:#0074bd;"/><path d="M125.46,248.822c0,0 -82.155,19.519 -29.092,26.613c22.412,2.999 67.063,2.309 108.685,-1.183c34.006,-2.854 68.133,-8.958 68.133,-8.958c0,0 -11.982,5.14 -20.657,11.06c-83.444,21.947 -244.612,11.726 -198.207,-10.712c39.227,-18.977 71.138,-16.82 71.138,-16.82Z" style="fill:#0074bd;"/><path d="M272.846,331.198c84.818,-44.063 45.597,-86.412 18.223,-80.708c-6.694,1.397 -9.697,2.607 -9.697,2.607c0,0 2.494,-3.907 7.243,-5.588c54.155,-19.03 95.794,56.146 -17.464,85.919c-0.001,0 1.302,-1.18 1.695,-2.23Z" style="fill:#0074bd;"/><path d="M221.719,0c0,0 46.963,46.99 -44.557,119.227c-73.393,57.969 -16.734,91.009 -0.026,128.778c-42.845,-38.653 -74.271,-72.684 -53.192,-104.352c30.954,-46.479 116.719,-69.021 97.775,-143.653Z" style="fill:#ea2d2e;"/><path d="M133.799,450.637c81.397,5.204 206.426,-2.896 209.385,-41.415c0,0 -5.688,14.602 -67.276,26.188c-69.481,13.081 -155.197,11.558 -206.016,3.167c0,0 10.411,8.617 63.907,12.06Z" style="fill:#0074bd;"/><path d="M339.426,519.716l-2.479,0l0,-1.385l6.676,0l0,1.385l-2.469,0l0,6.928l-1.729,0l0,-6.928l0.001,0ZM352.756,520.067l-0.032,0l-2.461,6.576l-1.132,0l-2.446,-6.576l-0.025,0l0,6.576l-1.638,0l0,-8.313l2.402,0l2.264,5.885l2.271,-5.885l2.388,0l0,8.313l-1.59,0l0,-6.576l-0.001,0Z" style="fill:#ea2d2e;"/><path d="M120.461,597.813c-7.676,6.654 -15.793,10.396 -23.079,10.396c-10.378,0 -16.007,-6.236 -16.007,-16.216c0,-10.803 6.027,-18.71 30.163,-18.71l8.923,0l0,24.53ZM141.65,621.716l0,-73.996c0,-18.915 -10.787,-31.396 -36.782,-31.396c-15.168,0 -28.467,3.75 -39.278,8.525l3.111,13.106c8.515,-3.127 19.526,-6.031 30.337,-6.031c14.978,0 21.423,6.031 21.423,18.505l0,9.356l-7.485,0c-36.383,0 -52.798,14.11 -52.798,35.336c0,18.285 10.819,28.682 31.185,28.682c13.088,0 22.87,-5.405 32.001,-13.315l1.663,11.228l16.623,0Z" style="fill:#ea2d2e;"/><path d="M212.362,621.716l-26.423,0l-31.807,-103.502l23.077,0l19.743,63.6l4.391,19.109c9.965,-27.639 17.032,-55.701 20.566,-82.709l22.445,0c-6.002,34.08 -16.831,71.492 -31.992,103.502Z" style="fill:#ea2d2e;"/><path d="M313.755,597.813c-7.701,6.654 -15.82,10.396 -23.086,10.396c-10.382,0 -16.011,-6.236 -16.011,-16.216c0,-10.803 6.039,-18.71 30.154,-18.71l8.942,0l0,24.53l0.001,0ZM334.951,621.716l0,-73.996c0,-18.915 -10.818,-31.396 -36.789,-31.396c-15.188,0 -28.484,3.75 -39.295,8.525l3.116,13.106c8.519,-3.127 19.545,-6.031 30.355,-6.031c14.96,0 21.416,6.031 21.416,18.505l0,9.356l-7.485,0c-36.391,0 -52.801,14.11 -52.801,35.336c0,18.285 10.804,28.682 31.169,28.682c13.099,0 22.862,-5.405 32.018,-13.315l1.674,11.228l16.622,0Z" style="fill:#ea2d2e;"/><path d="M36.941,639.306c-6.037,8.821 -15.8,15.809 -26.479,19.749l-10.462,-12.324c8.135,-4.178 15.103,-10.912 18.345,-17.182c2.796,-5.589 3.96,-12.773 3.96,-29.971l0,-118.18l22.519,0l0,116.551c0,23.001 -1.836,32.3 -7.883,41.357Z" style="fill:#ea2d2e;"/></g></svg>