<?xml version="1.0" standalone="no"?><!DOCTYPE svg PUBLIC "-//W3C//DTD SVG 1.1//EN" "http://www.w3.org/Graphics/SVG/1.1/DTD/svg11.dtd"><svg width="100%" height="100%" viewBox="0 0 107 20" version="1.1" xmlns="http://www.w3.org/2000/svg" xmlns:xlink="http://www.w3.org/1999/xlink" xml:space="preserve" style="fill-rule:evenodd;clip-rule:evenodd;stroke-miterlimit:1.41421;"><g id="BY-NC-SA"><g id="g3729"><rect id="rect3731" x="0.658" y="0.711" width="105.334" height="18.667" style="fill:#fff;stroke-width:1.33px;stroke:#000;"/><rect id="rect3733" x="2.633" y="2.578" width="101.384" height="14.934" style="fill:#000;"/><path id="path3735" d="M2.633,2.594l0,14.933l26.774,0c1.724,-2.178 2.886,-4.709 2.886,-7.467c0,-2.738 -1.142,-5.297 -2.844,-7.466l-26.816,0Z" style="fill:#abb1aa;fill-rule:nonzero;"/><g id="g3737"><path id="path3739" d="M25.72,10.044c0.003,4.656 -3.988,8.432 -8.914,8.435c-4.925,0.003 -8.921,-3.769 -8.924,-8.424c0,-0.004 0,-0.007 0,-0.011c-0.003,-4.655 3.988,-8.432 8.913,-8.434c4.927,-0.003 8.922,3.769 8.925,8.424c0,0.003 0,0.007 0,0.01Z" style="fill:#fff;fill-rule:nonzero;"/><path id="path3741" d="M24.051,3.178c1.978,1.869 2.967,4.159 2.967,6.866c0,2.708 -0.972,4.973 -2.916,6.795c-2.063,1.918 -4.501,2.877 -7.314,2.877c-2.779,0 -5.175,-0.951 -7.187,-2.853c-2.012,-1.902 -3.018,-4.175 -3.018,-6.819c0,-2.643 1.006,-4.932 3.018,-6.866c1.961,-1.87 4.357,-2.805 7.187,-2.805c2.865,0 5.285,0.935 7.263,2.805ZM10.933,4.436c-1.672,1.596 -2.508,3.466 -2.508,5.611c0,2.144 0.827,3.999 2.482,5.562c1.655,1.564 3.625,2.346 5.911,2.346c2.286,0 4.273,-0.789 5.962,-2.37c1.604,-1.467 2.406,-3.313 2.406,-5.538c0,-2.209 -0.815,-4.083 -2.445,-5.623c-1.628,-1.54 -3.603,-2.31 -5.923,-2.31c-2.32,0 -4.282,0.774 -5.885,2.322ZM15.333,9.104c-0.255,-0.527 -0.638,-0.79 -1.148,-0.79c-0.902,0 -1.352,0.574 -1.352,1.721c0,1.147 0.45,1.721 1.352,1.721c0.595,0 1.021,-0.28 1.276,-0.84l1.25,0.63c-0.596,1 -1.49,1.5 -2.682,1.5c-0.919,0 -1.655,-0.266 -2.208,-0.798c-0.554,-0.533 -0.83,-1.267 -0.83,-2.204c0,-0.919 0.285,-1.65 0.855,-2.191c0.571,-0.541 1.281,-0.811 2.133,-0.811c1.26,0 2.162,0.469 2.707,1.407l-1.353,0.655ZM21.214,9.104c-0.256,-0.527 -0.631,-0.79 -1.125,-0.79c-0.92,0 -1.38,0.574 -1.38,1.721c0,1.147 0.46,1.721 1.38,1.721c0.596,0 1.014,-0.28 1.252,-0.84l1.278,0.63c-0.595,1 -1.487,1.5 -2.677,1.5c-0.918,0 -1.653,-0.266 -2.205,-0.798c-0.552,-0.533 -0.828,-1.267 -0.828,-2.204c0,-0.919 0.28,-1.65 0.841,-2.191c0.561,-0.541 1.274,-0.811 2.141,-0.811c1.258,0 2.159,0.469 2.702,1.407l-1.379,0.655Z" style="fill:#000;fill-rule:nonzero;"/></g></g><path id="text3743" d="M38.736,9.202c0.323,0 0.568,-0.067 0.735,-0.2c0.167,-0.134 0.251,-0.33 0.251,-0.59c0,-0.257 -0.084,-0.452 -0.251,-0.586c-0.167,-0.136 -0.412,-0.205 -0.735,-0.205l-1.135,0l0,1.581l1.135,0M38.805,12.468c0.412,0 0.721,-0.082 0.927,-0.246c0.21,-0.163 0.315,-0.41 0.315,-0.74c0,-0.323 -0.103,-0.565 -0.309,-0.725c-0.206,-0.163 -0.517,-0.245 -0.933,-0.245l-1.204,0l0,1.956l1.204,0M40.713,9.782c0.44,0.12 0.781,0.342 1.022,0.665c0.242,0.323 0.363,0.72 0.363,1.19c0,0.721 -0.26,1.257 -0.778,1.611c-0.519,0.353 -1.307,0.53 -2.366,0.53l-3.404,0l0,-7.467l3.079,0c1.105,0 1.904,0.157 2.398,0.47c0.497,0.314 0.746,0.815 0.746,1.506c0,0.363 -0.091,0.673 -0.272,0.93c-0.181,0.253 -0.444,0.442 -0.788,0.565M41.919,6.311l2.243,0l1.812,2.661l1.811,-2.661l2.248,0l-3.031,4.321l0,3.146l-2.051,0l0,-3.146l-3.032,-4.321M48.925,10.102l3.346,0l0,1.455l-3.346,0l0,-1.455M53.875,6.311l2.291,0l2.892,5.121l0,-5.121l1.945,0l0,7.467l-2.291,0l-2.893,-5.121l0,5.121l-1.944,0l0,-7.467M69.325,13.368c-0.377,0.183 -0.769,0.322 -1.178,0.415c-0.408,0.093 -0.834,0.14 -1.278,0.14c-1.325,0 -2.375,-0.347 -3.149,-1.04c-0.774,-0.697 -1.161,-1.641 -1.161,-2.831c0,-1.194 0.387,-2.137 1.161,-2.831c0.774,-0.697 1.824,-1.045 3.149,-1.045c0.444,0 0.87,0.047 1.278,0.14c0.409,0.093 0.801,0.232 1.178,0.415l0,1.546c-0.38,-0.244 -0.755,-0.422 -1.124,-0.536c-0.37,-0.113 -0.759,-0.17 -1.167,-0.17c-0.732,0 -1.307,0.22 -1.726,0.661c-0.419,0.44 -0.629,1.046 -0.629,1.82c0,0.77 0.21,1.375 0.629,1.815c0.419,0.441 0.994,0.661 1.726,0.661c0.408,0 0.797,-0.057 1.167,-0.17c0.369,-0.114 0.744,-0.292 1.124,-0.536l0,1.546M70.875,10.102l3.346,0l0,1.455l-3.346,0l0,-1.455M81.36,6.546l0,1.58c-0.437,-0.183 -0.863,-0.321 -1.279,-0.415c-0.415,-0.093 -0.808,-0.14 -1.177,-0.14c-0.49,0 -0.852,0.064 -1.087,0.19c-0.234,0.127 -0.351,0.324 -0.351,0.591c0,0.2 0.078,0.356 0.234,0.47c0.16,0.11 0.448,0.205 0.863,0.285l0.874,0.165c0.884,0.166 1.513,0.42 1.886,0.76c0.373,0.34 0.559,0.823 0.559,1.45c0,0.824 -0.261,1.437 -0.783,1.841c-0.519,0.4 -1.312,0.6 -2.381,0.6c-0.505,0 -1.011,-0.045 -1.519,-0.135c-0.508,-0.09 -1.016,-0.224 -1.524,-0.4l0,-1.626c0.508,0.254 0.999,0.445 1.471,0.576c0.476,0.126 0.934,0.19 1.374,0.19c0.448,0 0.791,-0.07 1.029,-0.21c0.238,-0.141 0.357,-0.341 0.357,-0.601c0,-0.233 -0.082,-0.413 -0.245,-0.54c-0.16,-0.126 -0.482,-0.24 -0.965,-0.34l-0.794,-0.165c-0.795,-0.16 -1.378,-0.415 -1.747,-0.765c-0.366,-0.35 -0.549,-0.822 -0.549,-1.415c0,-0.744 0.256,-1.316 0.767,-1.716c0.512,-0.4 1.247,-0.6 2.206,-0.6c0.437,0 0.886,0.032 1.348,0.095c0.462,0.06 0.939,0.152 1.433,0.275M88.515,12.418l-3.207,0l-0.506,1.36l-2.062,0l2.946,-7.467l2.446,0l2.946,7.467l-2.062,0l-0.501,-1.36M85.819,11.032l2.179,0l-1.086,-2.971l-1.093,2.971" style="fill:#fff;fill-rule:nonzero;"/></g></svg>