<?xml version="1.0" standalone="no"?><!DOCTYPE svg PUBLIC "-//W3C//DTD SVG 1.1//EN" "http://www.w3.org/Graphics/SVG/1.1/DTD/svg11.dtd"><svg width="100%" height="100%" viewBox="0 0 150 150" version="1.1" xmlns="http://www.w3.org/2000/svg" xmlns:xlink="http://www.w3.org/1999/xlink" xml:space="preserve" style="fill-rule:evenodd;clip-rule:evenodd;stroke-linejoin:round;stroke-miterlimit:1.41421;"><path id="Calque1" d="M96.744,9.771c-12,-12.001 -31.486,-12.001 -43.487,0l-43.487,43.487c-12,12 -12,31.486 0,43.487l43.487,43.487c12.001,12 31.487,12 43.488,0l43.487,-43.487c12,-12.001 12,-31.487 -0.001,-43.487l-43.487,-43.487Z" style="fill:#acacac;fill-opacity:0.74902;"/><path d="M75.387,15.001l0.387,0.004l0.387,0.006l0.386,0.009l0.385,0.011l0.384,0.013l0.384,0.016l0.384,0.018l0.383,0.021l0.382,0.023l0.381,0.025l0.381,0.028l0.381,0.03l0.379,0.033l0.379,0.035l0.378,0.037l0.378,0.04l0.377,0.041l0.376,0.045l0.376,0.046l0.375,0.049l0.374,0.051l0.373,0.054l0.373,0.056l0.372,0.058l0.371,0.06l0.37,0.063l0.37,0.065l0.369,0.067l0.368,0.069l0.367,0.072l0.367,0.074l0.366,0.076l0.365,0.078l0.364,0.081l0.363,0.083l0.362,0.085l0.362,0.087l0.361,0.089l0.36,0.092l0.359,0.093l0.358,0.096l0.357,0.098l0.356,0.1l0.356,0.102l0.355,0.105l0.353,0.106l0.353,0.109l0.352,0.111l0.351,0.112l0.35,0.115l0.349,0.117l0.348,0.119l0.347,0.122l0.346,0.123l0.345,0.125l0.344,0.127l0.343,0.13l0.343,0.131l0.341,0.134l0.34,0.135l0.339,0.137l0.338,0.14l0.337,0.141l0.336,0.144l0.335,0.145l0.334,0.148l0.333,0.149l0.331,0.151l0.331,0.153l0.33,0.156l0.328,0.157l0.327,0.159l0.327,0.161l0.325,0.163l0.324,0.165l0.323,0.166l0.321,0.169l0.321,0.17l0.319,0.173l0.319,0.174l0.317,0.176l0.316,0.178l0.314,0.18l0.314,0.181l0.312,0.184l0.311,0.185l0.31,0.187l0.309,0.189l0.307,0.191l0.306,0.192l0.305,0.195l0.304,0.196l0.302,0.197l0.301,0.2l0.3,0.201l0.299,0.203l0.297,0.205l0.296,0.207l0.295,0.208l0.293,0.21l0.292,0.212l0.291,0.213l0.29,0.216l0.288,0.216l0.286,0.219l0.286,0.22l0.284,0.222l0.282,0.224l0.282,0.225l0.279,0.227l0.279,0.228l0.277,0.23l0.276,0.232l0.274,0.233l0.273,0.235l0.271,0.237l0.27,0.238l0.269,0.24l0.267,0.241l0.265,0.243l0.265,0.244l0.262,0.246l0.262,0.248l0.259,0.249l0.258,0.251l0.257,0.252l0.255,0.254l0.254,0.255l0.252,0.257l0.251,0.258l0.249,0.259l0.248,0.262l0.246,0.262l0.244,0.265l0.243,0.265l0.241,0.267l0.24,0.269l0.238,0.27l0.237,0.271l0.235,0.273l0.233,0.274l0.232,0.276l0.23,0.277l0.228,0.279l0.227,0.279l0.225,0.282l0.224,0.282l0.222,0.284l0.22,0.286l0.219,0.286l0.216,0.288l0.216,0.29l0.213,0.291l0.212,0.292l0.21,0.293l0.208,0.295l0.207,0.296l0.205,0.297l0.203,0.299l0.201,0.3l0.2,0.301l0.197,0.302l0.196,0.304l0.195,0.305l0.192,0.306l0.191,0.307l0.189,0.309l0.187,0.31l0.185,0.311l0.184,0.312l0.181,0.314l0.18,0.314l0.178,0.316l0.176,0.317l0.174,0.319l0.173,0.319l0.17,0.321l0.169,0.321l0.166,0.323l0.165,0.324l0.163,0.325l0.161,0.327l0.159,0.327l0.157,0.328l0.156,0.33l0.153,0.331l0.151,0.331l0.149,0.333l0.148,0.334l0.145,0.335l0.144,0.336l0.141,0.337l0.14,0.338l0.137,0.339l0.135,0.34l0.134,0.341l0.131,0.343l0.13,0.343l0.127,0.344l0.125,0.345l0.123,0.346l0.122,0.347l0.119,0.348l0.117,0.349l0.115,0.35l0.112,0.351l0.111,0.352l0.109,0.353l0.106,0.353l0.105,0.355l0.102,0.356l0.1,0.356l0.098,0.357l0.096,0.358l0.093,0.359l0.092,0.36l0.089,0.361l0.087,0.362l0.085,0.362l0.083,0.363l0.081,0.364l0.078,0.365l0.076,0.366l0.074,0.367l0.072,0.367l0.069,0.368l0.067,0.369l0.065,0.37l0.063,0.37l0.06,0.371l0.058,0.372l0.056,0.373l0.054,0.373l0.051,0.374l0.049,0.375l0.046,0.376l0.045,0.376l0.041,0.377l0.04,0.378l0.037,0.378l0.035,0.379l0.033,0.379l0.03,0.381l0.028,0.381l0.025,0.381l0.023,0.382l0.021,0.383l0.018,0.384l0.016,0.384l0.013,0.384l0.011,0.385l0.009,0.386l0.006,0.387l0.004,0.387l0.001,0.387l-0.001,0.387l-0.004,0.387l-0.006,0.387l-0.009,0.386l-0.011,0.385l-0.013,0.384l-0.016,0.384l-0.018,0.384l-0.021,0.383l-0.023,0.382l-0.025,0.381l-0.028,0.381l-0.03,0.381l-0.033,0.379l-0.035,0.379l-0.037,0.378l-0.04,0.378l-0.041,0.377l-0.045,0.376l-0.046,0.376l-0.049,0.375l-0.051,0.374l-0.054,0.373l-0.056,0.373l-0.058,0.372l-0.06,0.371l-0.063,0.37l-0.065,0.37l-0.067,0.369l-0.069,0.368l-0.072,0.367l-0.074,0.367l-0.076,0.366l-0.078,0.365l-0.081,0.364l-0.083,0.363l-0.085,0.362l-0.087,0.362l-0.089,0.361l-0.092,0.36l-0.093,0.359l-0.096,0.358l-0.098,0.357l-0.1,0.356l-0.102,0.356l-0.105,0.355l-0.106,0.353l-0.109,0.353l-0.111,0.352l-0.112,0.351l-0.115,0.35l-0.117,0.349l-0.119,0.348l-0.122,0.347l-0.123,0.346l-0.125,0.345l-0.127,0.344l-0.13,0.343l-0.131,0.343l-0.134,0.341l-0.135,0.34l-0.137,0.339l-0.14,0.338l-0.141,0.337l-0.144,0.336l-0.145,0.335l-0.148,0.334l-0.149,0.333l-0.151,0.331l-0.153,0.331l-0.156,0.33l-0.157,0.328l-0.159,0.327l-0.161,0.327l-0.163,0.325l-0.165,0.324l-0.166,0.323l-0.169,0.321l-0.17,0.321l-0.173,0.319l-0.174,0.319l-0.176,0.317l-0.178,0.316l-0.18,0.314l-0.181,0.314l-0.184,0.312l-0.185,0.311l-0.187,0.31l-0.189,0.309l-0.191,0.307l-0.192,0.306l-0.195,0.305l-0.196,0.304l-0.197,0.302l-0.2,0.301l-0.201,0.3l-0.203,0.299l-0.205,0.297l-0.207,0.296l-0.208,0.295l-0.21,0.293l-0.212,0.292l-0.213,0.291l-0.216,0.29l-0.216,0.288l-0.219,0.286l-0.22,0.286l-0.222,0.284l-0.224,0.282l-0.225,0.282l-0.227,0.279l-0.228,0.279l-0.23,0.277l-0.232,0.276l-0.233,0.274l-0.235,0.273l-0.237,0.271l-0.238,0.27l-0.24,0.269l-0.241,0.267l-0.243,0.265l-0.244,0.265l-0.246,0.262l-0.248,0.262l-0.249,0.259l-0.251,0.259l-0.252,0.256l-0.254,0.255l-0.255,0.254l-0.256,0.252l-0.259,0.251l-0.259,0.249l-0.262,0.248l-0.262,0.246l-0.265,0.244l-0.265,0.243l-0.267,0.241l-0.269,0.24l-0.27,0.238l-0.271,0.237l-0.273,0.235l-0.274,0.233l-0.276,0.232l-0.277,0.23l-0.279,0.228l-0.279,0.227l-0.282,0.225l-0.282,0.224l-0.284,0.222l-0.286,0.22l-0.286,0.219l-0.288,0.216l-0.29,0.216l-0.291,0.213l-0.292,0.212l-0.293,0.21l-0.295,0.208l-0.296,0.207l-0.297,0.205l-0.299,0.203l-0.3,0.201l-0.301,0.2l-0.302,0.197l-0.304,0.196l-0.305,0.195l-0.306,0.192l-0.307,0.191l-0.309,0.189l-0.31,0.187l-0.311,0.185l-0.312,0.184l-0.314,0.181l-0.314,0.18l-0.316,0.178l-0.317,0.176l-0.319,0.174l-0.319,0.173l-0.321,0.17l-0.321,0.169l-0.323,0.166l-0.324,0.165l-0.325,0.163l-0.327,0.161l-0.327,0.159l-0.328,0.157l-0.33,0.156l-0.331,0.153l-0.331,0.151l-0.333,0.149l-0.334,0.148l-0.335,0.145l-0.336,0.144l-0.337,0.141l-0.338,0.14l-0.339,0.137l-0.34,0.135l-0.341,0.134l-0.343,0.131l-0.343,0.13l-0.344,0.127l-0.345,0.125l-0.346,0.123l-0.347,0.122l-0.348,0.119l-0.349,0.117l-0.35,0.115l-0.351,0.112l-0.352,0.111l-0.353,0.109l-0.353,0.106l-0.355,0.105l-0.356,0.102l-0.356,0.1l-0.357,0.098l-0.358,0.096l-0.359,0.093l-0.36,0.092l-0.361,0.089l-0.362,0.087l-0.362,0.085l-0.363,0.083l-0.364,0.081l-0.365,0.078l-0.366,0.076l-0.367,0.074l-0.367,0.072l-0.368,0.069l-0.369,0.067l-0.37,0.065l-0.37,0.063l-0.371,0.06l-0.372,0.058l-0.373,0.056l-0.373,0.054l-0.374,0.051l-0.375,0.049l-0.376,0.046l-0.376,0.045l-0.377,0.041l-0.378,0.04l-0.378,0.037l-0.379,0.035l-0.379,0.033l-0.381,0.03l-0.381,0.028l-0.381,0.025l-0.382,0.023l-0.383,0.021l-0.384,0.018l-0.384,0.016l-0.384,0.013l-0.385,0.011l-0.386,0.009l-0.387,0.006l-0.387,0.004l-0.387,0.001l-0.387,-0.001l-0.387,-0.004l-0.387,-0.006l-0.386,-0.009l-0.385,-0.011l-0.384,-0.013l-0.384,-0.016l-0.384,-0.018l-0.383,-0.021l-0.382,-0.023l-0.381,-0.025l-0.381,-0.028l-0.381,-0.03l-0.379,-0.033l-0.379,-0.035l-0.378,-0.037l-0.378,-0.04l-0.377,-0.041l-0.376,-0.045l-0.376,-0.046l-0.375,-0.049l-0.374,-0.051l-0.373,-0.054l-0.373,-0.056l-0.372,-0.058l-0.371,-0.06l-0.37,-0.063l-0.37,-0.065l-0.369,-0.067l-0.368,-0.069l-0.367,-0.072l-0.367,-0.074l-0.366,-0.076l-0.365,-0.078l-0.364,-0.081l-0.363,-0.083l-0.362,-0.085l-0.362,-0.087l-0.361,-0.089l-0.36,-0.092l-0.359,-0.093l-0.358,-0.096l-0.357,-0.098l-0.356,-0.1l-0.356,-0.102l-0.355,-0.105l-0.353,-0.106l-0.353,-0.109l-0.352,-0.111l-0.351,-0.112l-0.35,-0.115l-0.349,-0.117l-0.348,-0.119l-0.347,-0.122l-0.346,-0.123l-0.345,-0.125l-0.344,-0.127l-0.343,-0.13l-0.343,-0.131l-0.341,-0.134l-0.34,-0.135l-0.339,-0.137l-0.338,-0.14l-0.337,-0.141l-0.336,-0.144l-0.335,-0.145l-0.334,-0.148l-0.333,-0.149l-0.331,-0.151l-0.331,-0.153l-0.33,-0.156l-0.328,-0.157l-0.327,-0.159l-0.327,-0.161l-0.325,-0.163l-0.324,-0.165l-0.323,-0.166l-0.321,-0.169l-0.321,-0.17l-0.319,-0.173l-0.319,-0.174l-0.317,-0.176l-0.316,-0.178l-0.314,-0.18l-0.314,-0.181l-0.312,-0.184l-0.311,-0.185l-0.31,-0.187l-0.309,-0.189l-0.307,-0.191l-0.306,-0.192l-0.305,-0.195l-0.304,-0.196l-0.302,-0.197l-0.301,-0.2l-0.3,-0.201l-0.299,-0.203l-0.297,-0.205l-0.296,-0.207l-0.295,-0.208l-0.293,-0.21l-0.292,-0.212l-0.291,-0.213l-0.29,-0.216l-0.288,-0.216l-0.286,-0.219l-0.286,-0.22l-0.284,-0.222l-0.282,-0.224l-0.282,-0.225l-0.279,-0.227l-0.279,-0.228l-0.277,-0.23l-0.276,-0.232l-0.274,-0.233l-0.273,-0.235l-0.271,-0.237l-0.27,-0.238l-0.269,-0.24l-0.267,-0.241l-0.265,-0.243l-0.265,-0.244l-0.262,-0.246l-0.262,-0.248l-0.259,-0.249l-0.258,-0.251l-0.257,-0.252l-0.255,-0.254l-0.254,-0.255l-0.252,-0.257l-0.251,-0.258l-0.249,-0.259l-0.248,-0.262l-0.246,-0.262l-0.244,-0.265l-0.243,-0.265l-0.241,-0.267l-0.24,-0.269l-0.238,-0.27l-0.237,-0.271l-0.235,-0.273l-0.233,-0.274l-0.232,-0.276l-0.23,-0.277l-0.228,-0.279l-0.227,-0.279l-0.225,-0.282l-0.224,-0.282l-0.222,-0.284l-0.22,-0.286l-0.219,-0.286l-0.216,-0.288l-0.216,-0.29l-0.213,-0.291l-0.212,-0.292l-0.21,-0.293l-0.208,-0.295l-0.207,-0.296l-0.205,-0.297l-0.203,-0.299l-0.201,-0.3l-0.2,-0.301l-0.197,-0.302l-0.196,-0.304l-0.195,-0.305l-0.192,-0.306l-0.191,-0.307l-0.189,-0.309l-0.187,-0.31l-0.185,-0.311l-0.184,-0.312l-0.181,-0.314l-0.18,-0.314l-0.178,-0.316l-0.176,-0.317l-0.174,-0.319l-0.173,-0.319l-0.17,-0.321l-0.169,-0.321l-0.166,-0.323l-0.165,-0.324l-0.163,-0.325l-0.161,-0.327l-0.159,-0.327l-0.157,-0.328l-0.156,-0.33l-0.153,-0.331l-0.151,-0.331l-0.149,-0.333l-0.148,-0.334l-0.145,-0.335l-0.144,-0.336l-0.141,-0.337l-0.14,-0.338l-0.137,-0.339l-0.135,-0.34l-0.134,-0.341l-0.131,-0.343l-0.13,-0.343l-0.127,-0.344l-0.125,-0.345l-0.123,-0.346l-0.122,-0.347l-0.119,-0.348l-0.117,-0.349l-0.115,-0.35l-0.112,-0.351l-0.111,-0.352l-0.109,-0.353l-0.106,-0.353l-0.105,-0.355l-0.102,-0.356l-0.1,-0.356l-0.098,-0.357l-0.096,-0.358l-0.093,-0.359l-0.092,-0.36l-0.089,-0.361l-0.087,-0.362l-0.085,-0.362l-0.083,-0.363l-0.081,-0.364l-0.078,-0.365l-0.076,-0.366l-0.074,-0.367l-0.072,-0.367l-0.069,-0.368l-0.067,-0.369l-0.065,-0.37l-0.063,-0.37l-0.06,-0.371l-0.058,-0.372l-0.056,-0.373l-0.054,-0.373l-0.051,-0.374l-0.049,-0.375l-0.046,-0.376l-0.045,-0.376l-0.041,-0.377l-0.04,-0.378l-0.037,-0.378l-0.035,-0.379l-0.033,-0.379l-0.03,-0.381l-0.028,-0.381l-0.025,-0.381l-0.023,-0.382l-0.021,-0.383l-0.018,-0.384l-0.016,-0.384l-0.013,-0.384l-0.011,-0.385l-0.009,-0.386l-0.006,-0.387l-0.004,-0.387l-0.001,-0.387l0.001,-0.387l0.004,-0.387l0.006,-0.387l0.009,-0.386l0.011,-0.385l0.013,-0.384l0.016,-0.384l0.018,-0.384l0.021,-0.383l0.023,-0.382l0.025,-0.381l0.028,-0.381l0.03,-0.381l0.033,-0.379l0.035,-0.379l0.037,-0.378l0.04,-0.378l0.041,-0.377l0.045,-0.376l0.046,-0.376l0.049,-0.375l0.051,-0.374l0.054,-0.373l0.056,-0.373l0.058,-0.372l0.06,-0.371l0.063,-0.37l0.065,-0.37l0.067,-0.369l0.069,-0.368l0.072,-0.367l0.074,-0.367l0.076,-0.366l0.078,-0.365l0.081,-0.364l0.083,-0.363l0.085,-0.362l0.087,-0.362l0.089,-0.361l0.092,-0.36l0.093,-0.359l0.096,-0.358l0.098,-0.357l0.1,-0.356l0.102,-0.356l0.105,-0.355l0.106,-0.353l0.109,-0.353l0.111,-0.352l0.112,-0.351l0.115,-0.35l0.117,-0.349l0.119,-0.348l0.122,-0.347l0.123,-0.346l0.125,-0.345l0.127,-0.344l0.13,-0.343l0.131,-0.343l0.134,-0.341l0.135,-0.34l0.137,-0.339l0.14,-0.338l0.141,-0.337l0.144,-0.336l0.145,-0.335l0.148,-0.334l0.149,-0.333l0.151,-0.331l0.153,-0.331l0.156,-0.33l0.157,-0.328l0.159,-0.327l0.161,-0.327l0.163,-0.325l0.165,-0.324l0.166,-0.323l0.169,-0.321l0.17,-0.321l0.173,-0.319l0.174,-0.319l0.176,-0.317l0.178,-0.316l0.18,-0.314l0.181,-0.314l0.184,-0.312l0.185,-0.311l0.187,-0.31l0.189,-0.309l0.191,-0.307l0.192,-0.306l0.195,-0.305l0.196,-0.304l0.197,-0.302l0.2,-0.301l0.201,-0.3l0.203,-0.299l0.205,-0.297l0.207,-0.296l0.208,-0.295l0.21,-0.293l0.212,-0.292l0.213,-0.291l0.216,-0.29l0.216,-0.288l0.219,-0.286l0.22,-0.286l0.222,-0.284l0.224,-0.282l0.225,-0.282l0.227,-0.279l0.228,-0.279l0.23,-0.277l0.232,-0.276l0.233,-0.274l0.235,-0.273l0.237,-0.271l0.238,-0.27l0.24,-0.269l0.241,-0.267l0.243,-0.265l0.244,-0.265l0.246,-0.262l0.248,-0.262l0.249,-0.259l0.251,-0.258l0.252,-0.257l0.254,-0.255l0.255,-0.254l0.257,-0.252l0.258,-0.251l0.259,-0.249l0.262,-0.248l0.262,-0.246l0.265,-0.244l0.265,-0.243l0.267,-0.241l0.269,-0.24l0.27,-0.238l0.271,-0.237l0.273,-0.235l0.274,-0.233l0.276,-0.232l0.277,-0.23l0.279,-0.228l0.279,-0.227l0.282,-0.225l0.282,-0.224l0.284,-0.222l0.286,-0.22l0.286,-0.219l0.288,-0.216l0.29,-0.216l0.291,-0.213l0.292,-0.212l0.293,-0.21l0.295,-0.208l0.296,-0.207l0.297,-0.205l0.299,-0.203l0.3,-0.201l0.301,-0.2l0.302,-0.197l0.304,-0.196l0.305,-0.195l0.306,-0.192l0.307,-0.191l0.309,-0.189l0.31,-0.187l0.311,-0.185l0.312,-0.184l0.314,-0.181l0.314,-0.18l0.316,-0.178l0.317,-0.176l0.319,-0.174l0.319,-0.173l0.321,-0.17l0.321,-0.169l0.323,-0.166l0.324,-0.165l0.325,-0.163l0.327,-0.161l0.327,-0.159l0.328,-0.157l0.33,-0.156l0.331,-0.153l0.331,-0.151l0.333,-0.149l0.334,-0.148l0.335,-0.145l0.336,-0.144l0.337,-0.141l0.338,-0.14l0.339,-0.137l0.34,-0.135l0.341,-0.134l0.343,-0.131l0.343,-0.13l0.344,-0.127l0.345,-0.125l0.346,-0.123l0.347,-0.122l0.348,-0.119l0.349,-0.117l0.35,-0.115l0.351,-0.112l0.352,-0.111l0.353,-0.109l0.353,-0.106l0.355,-0.105l0.356,-0.102l0.356,-0.1l0.357,-0.098l0.358,-0.096l0.359,-0.093l0.36,-0.092l0.361,-0.089l0.362,-0.087l0.362,-0.085l0.363,-0.083l0.364,-0.081l0.365,-0.078l0.366,-0.076l0.367,-0.074l0.367,-0.072l0.368,-0.069l0.369,-0.067l0.37,-0.065l0.37,-0.063l0.371,-0.06l0.372,-0.058l0.373,-0.056l0.373,-0.054l0.374,-0.051l0.375,-0.049l0.376,-0.046l0.376,-0.045l0.377,-0.041l0.378,-0.04l0.378,-0.037l0.379,-0.035l0.379,-0.033l0.381,-0.03l0.381,-0.028l0.381,-0.025l0.382,-0.023l0.383,-0.021l0.384,-0.018l0.384,-0.016l0.384,-0.013l0.385,-0.011l0.386,-0.009l0.387,-0.006l0.387,-0.004l0.387,-0.001l0.387,0.001ZM74.644,20.001l-0.355,0.004l-0.355,0.005l-0.354,0.008l-0.353,0.01l-0.353,0.012l-0.353,0.015l-0.351,0.017l-0.352,0.019l-0.35,0.021l-0.35,0.023l-0.349,0.026l-0.349,0.027l-0.348,0.03l-0.348,0.032l-0.347,0.034l-0.346,0.037l-0.345,0.038l-0.345,0.041l-0.345,0.042l-0.343,0.045l-0.343,0.047l-0.342,0.049l-0.342,0.051l-0.341,0.054l-0.34,0.055l-0.339,0.057l-0.339,0.06l-0.338,0.061l-0.337,0.064l-0.337,0.066l-0.335,0.067l-0.336,0.07l-0.334,0.072l-0.333,0.074l-0.333,0.075l-0.332,0.078l-0.331,0.08l-0.331,0.082l-0.33,0.084l-0.328,0.085l-0.328,0.088l-0.328,0.09l-0.326,0.092l-0.326,0.093l-0.325,0.096l-0.324,0.097l-0.323,0.1l-0.322,0.101l-0.321,0.104l-0.321,0.105l-0.32,0.107l-0.319,0.109l-0.318,0.111l-0.317,0.113l-0.316,0.115l-0.315,0.116l-0.314,0.119l-0.314,0.12l-0.312,0.123l-0.312,0.124l-0.311,0.126l-0.309,0.127l-0.309,0.13l-0.308,0.131l-0.307,0.134l-0.306,0.135l-0.305,0.136l-0.304,0.139l-0.303,0.14l-0.302,0.143l-0.301,0.144l-0.3,0.145l-0.299,0.148l-0.297,0.149l-0.297,0.151l-0.296,0.153l-0.295,0.155l-0.294,0.156l-0.293,0.158l-0.291,0.159l-0.291,0.162l-0.289,0.163l-0.289,0.165l-0.287,0.166l-0.287,0.168l-0.285,0.17l-0.284,0.172l-0.283,0.173l-0.282,0.175l-0.28,0.176l-0.28,0.178l-0.278,0.18l-0.278,0.181l-0.276,0.183l-0.275,0.185l-0.273,0.186l-0.273,0.188l-0.271,0.19l-0.271,0.191l-0.269,0.192l-0.268,0.194l-0.266,0.196l-0.266,0.197l-0.264,0.199l-0.263,0.201l-0.261,0.202l-0.261,0.203l-0.259,0.205l-0.258,0.207l-0.257,0.208l-0.255,0.209l-0.254,0.211l-0.253,0.213l-0.252,0.214l-0.25,0.215l-0.249,0.217l-0.247,0.219l-0.247,0.22l-0.245,0.221l-0.243,0.223l-0.243,0.224l-0.241,0.226l-0.239,0.227l-0.238,0.228l-0.237,0.23l-0.236,0.231l-0.234,0.233l-0.233,0.234l-0.231,0.236l-0.23,0.237l-0.228,0.238l-0.227,0.239l-0.226,0.241l-0.224,0.243l-0.223,0.243l-0.221,0.245l-0.22,0.247l-0.219,0.247l-0.217,0.249l-0.215,0.25l-0.214,0.252l-0.213,0.253l-0.211,0.254l-0.209,0.255l-0.208,0.257l-0.207,0.258l-0.205,0.259l-0.203,0.261l-0.202,0.261l-0.201,0.263l-0.199,0.264l-0.197,0.266l-0.196,0.266l-0.194,0.268l-0.192,0.269l-0.191,0.271l-0.19,0.271l-0.188,0.273l-0.186,0.273l-0.185,0.275l-0.183,0.276l-0.181,0.278l-0.18,0.278l-0.178,0.28l-0.176,0.28l-0.175,0.282l-0.173,0.283l-0.172,0.284l-0.17,0.285l-0.168,0.287l-0.166,0.287l-0.165,0.289l-0.163,0.289l-0.162,0.291l-0.159,0.291l-0.158,0.293l-0.156,0.294l-0.155,0.295l-0.153,0.296l-0.151,0.297l-0.149,0.297l-0.148,0.299l-0.145,0.3l-0.144,0.301l-0.143,0.302l-0.14,0.303l-0.139,0.304l-0.136,0.305l-0.135,0.306l-0.134,0.307l-0.131,0.308l-0.13,0.309l-0.127,0.309l-0.126,0.311l-0.124,0.312l-0.123,0.312l-0.12,0.314l-0.119,0.314l-0.116,0.315l-0.115,0.316l-0.113,0.317l-0.111,0.318l-0.109,0.319l-0.107,0.32l-0.105,0.321l-0.104,0.321l-0.101,0.322l-0.1,0.323l-0.097,0.324l-0.096,0.325l-0.093,0.326l-0.092,0.326l-0.09,0.328l-0.088,0.328l-0.085,0.328l-0.084,0.33l-0.082,0.331l-0.08,0.331l-0.078,0.332l-0.075,0.333l-0.074,0.333l-0.072,0.334l-0.07,0.336l-0.067,0.335l-0.066,0.337l-0.064,0.337l-0.061,0.338l-0.06,0.339l-0.057,0.339l-0.055,0.34l-0.054,0.341l-0.051,0.342l-0.049,0.342l-0.047,0.343l-0.045,0.343l-0.042,0.345l-0.041,0.345l-0.038,0.345l-0.037,0.346l-0.034,0.347l-0.032,0.348l-0.03,0.348l-0.027,0.349l-0.026,0.349l-0.023,0.35l-0.021,0.35l-0.019,0.352l-0.017,0.351l-0.015,0.353l-0.012,0.353l-0.01,0.353l-0.008,0.354l-0.005,0.355l-0.004,0.355l-0.001,0.356l0.001,0.356l0.004,0.355l0.005,0.355l0.008,0.354l0.01,0.353l0.012,0.353l0.015,0.353l0.017,0.351l0.019,0.352l0.021,0.35l0.023,0.35l0.026,0.349l0.027,0.349l0.03,0.348l0.032,0.348l0.034,0.347l0.037,0.346l0.038,0.345l0.041,0.345l0.042,0.345l0.045,0.343l0.047,0.343l0.049,0.342l0.051,0.342l0.054,0.341l0.055,0.34l0.057,0.339l0.06,0.339l0.061,0.338l0.064,0.337l0.066,0.337l0.067,0.335l0.07,0.335l0.072,0.335l0.074,0.333l0.075,0.333l0.078,0.332l0.08,0.331l0.082,0.331l0.084,0.33l0.085,0.328l0.088,0.328l0.09,0.328l0.092,0.326l0.093,0.326l0.096,0.325l0.097,0.324l0.1,0.323l0.101,0.322l0.104,0.321l0.105,0.321l0.107,0.32l0.109,0.319l0.111,0.317l0.113,0.318l0.115,0.316l0.116,0.315l0.119,0.314l0.12,0.314l0.123,0.312l0.124,0.312l0.126,0.311l0.127,0.309l0.13,0.309l0.131,0.308l0.134,0.307l0.135,0.306l0.136,0.305l0.139,0.304l0.14,0.303l0.143,0.302l0.144,0.301l0.145,0.3l0.148,0.299l0.149,0.297l0.151,0.297l0.153,0.296l0.155,0.295l0.156,0.294l0.158,0.293l0.159,0.291l0.162,0.291l0.163,0.289l0.165,0.289l0.166,0.287l0.168,0.287l0.17,0.285l0.172,0.284l0.173,0.283l0.175,0.282l0.176,0.28l0.178,0.28l0.18,0.278l0.181,0.278l0.183,0.276l0.185,0.275l0.186,0.273l0.188,0.273l0.19,0.271l0.191,0.271l0.192,0.269l0.194,0.268l0.196,0.266l0.197,0.266l0.199,0.264l0.201,0.263l0.202,0.261l0.203,0.261l0.205,0.259l0.207,0.258l0.208,0.257l0.209,0.255l0.211,0.254l0.213,0.253l0.214,0.252l0.215,0.25l0.217,0.249l0.219,0.247l0.22,0.247l0.221,0.245l0.223,0.243l0.224,0.243l0.226,0.241l0.227,0.239l0.228,0.238l0.23,0.237l0.231,0.236l0.233,0.234l0.234,0.233l0.236,0.231l0.237,0.23l0.238,0.228l0.239,0.227l0.241,0.226l0.243,0.224l0.243,0.223l0.245,0.221l0.247,0.22l0.247,0.219l0.249,0.217l0.25,0.215l0.252,0.214l0.253,0.213l0.254,0.211l0.255,0.209l0.257,0.208l0.258,0.207l0.259,0.205l0.261,0.203l0.261,0.202l0.263,0.201l0.264,0.199l0.266,0.197l0.266,0.196l0.268,0.194l0.269,0.192l0.271,0.191l0.271,0.19l0.273,0.188l0.273,0.186l0.275,0.185l0.276,0.183l0.278,0.181l0.278,0.18l0.28,0.178l0.28,0.176l0.282,0.175l0.283,0.173l0.284,0.172l0.285,0.17l0.287,0.168l0.287,0.166l0.289,0.165l0.289,0.163l0.291,0.162l0.291,0.159l0.293,0.158l0.294,0.156l0.295,0.155l0.296,0.153l0.297,0.151l0.297,0.149l0.299,0.148l0.3,0.145l0.301,0.144l0.302,0.143l0.303,0.14l0.304,0.139l0.305,0.136l0.306,0.135l0.307,0.134l0.308,0.131l0.309,0.13l0.309,0.127l0.311,0.126l0.312,0.124l0.312,0.123l0.314,0.12l0.314,0.119l0.315,0.116l0.316,0.115l0.317,0.113l0.318,0.111l0.319,0.109l0.32,0.107l0.321,0.105l0.321,0.104l0.322,0.101l0.323,0.1l0.324,0.097l0.325,0.096l0.326,0.093l0.326,0.092l0.328,0.09l0.328,0.088l0.328,0.085l0.33,0.084l0.331,0.082l0.331,0.08l0.332,0.078l0.333,0.075l0.333,0.074l0.335,0.072l0.335,0.07l0.335,0.067l0.337,0.066l0.337,0.064l0.338,0.061l0.339,0.06l0.339,0.057l0.34,0.055l0.341,0.054l0.342,0.051l0.342,0.049l0.343,0.047l0.343,0.045l0.345,0.042l0.345,0.041l0.345,0.038l0.346,0.037l0.347,0.034l0.348,0.032l0.348,0.03l0.349,0.027l0.349,0.026l0.35,0.023l0.35,0.021l0.352,0.019l0.351,0.017l0.353,0.015l0.353,0.012l0.353,0.01l0.354,0.008l0.355,0.005l0.355,0.004l0.356,0.001l0.356,-0.001l0.355,-0.004l0.355,-0.005l0.354,-0.008l0.353,-0.01l0.353,-0.012l0.353,-0.015l0.351,-0.017l0.352,-0.019l0.35,-0.021l0.35,-0.023l0.349,-0.026l0.349,-0.027l0.348,-0.03l0.348,-0.032l0.347,-0.034l0.346,-0.037l0.345,-0.038l0.345,-0.041l0.345,-0.042l0.343,-0.045l0.343,-0.047l0.342,-0.049l0.342,-0.051l0.341,-0.054l0.34,-0.055l0.339,-0.057l0.339,-0.06l0.338,-0.061l0.337,-0.064l0.337,-0.066l0.335,-0.067l0.335,-0.07l0.335,-0.072l0.333,-0.074l0.333,-0.075l0.332,-0.078l0.331,-0.08l0.331,-0.082l0.33,-0.084l0.328,-0.085l0.328,-0.088l0.328,-0.09l0.326,-0.092l0.326,-0.093l0.325,-0.096l0.324,-0.097l0.323,-0.1l0.322,-0.101l0.321,-0.104l0.321,-0.105l0.32,-0.107l0.319,-0.109l0.317,-0.111l0.318,-0.113l0.316,-0.115l0.315,-0.116l0.314,-0.119l0.314,-0.12l0.312,-0.123l0.312,-0.124l0.311,-0.126l0.309,-0.127l0.309,-0.13l0.308,-0.131l0.307,-0.134l0.306,-0.135l0.305,-0.136l0.304,-0.139l0.303,-0.14l0.302,-0.143l0.301,-0.144l0.3,-0.145l0.299,-0.148l0.297,-0.149l0.297,-0.151l0.296,-0.153l0.295,-0.155l0.294,-0.156l0.293,-0.158l0.291,-0.159l0.291,-0.162l0.289,-0.163l0.289,-0.165l0.287,-0.166l0.287,-0.168l0.285,-0.17l0.284,-0.172l0.283,-0.173l0.282,-0.175l0.28,-0.176l0.28,-0.178l0.278,-0.18l0.278,-0.181l0.276,-0.183l0.275,-0.185l0.273,-0.186l0.273,-0.188l0.271,-0.19l0.271,-0.191l0.269,-0.192l0.268,-0.194l0.266,-0.196l0.265,-0.197l0.265,-0.199l0.263,-0.201l0.261,-0.202l0.261,-0.203l0.259,-0.205l0.258,-0.207l0.257,-0.208l0.255,-0.209l0.254,-0.211l0.253,-0.213l0.252,-0.214l0.25,-0.215l0.249,-0.217l0.247,-0.219l0.247,-0.22l0.245,-0.221l0.243,-0.223l0.243,-0.224l0.241,-0.226l0.239,-0.227l0.238,-0.228l0.237,-0.23l0.236,-0.231l0.234,-0.233l0.233,-0.234l0.231,-0.236l0.23,-0.237l0.228,-0.238l0.227,-0.239l0.226,-0.241l0.224,-0.243l0.223,-0.243l0.221,-0.245l0.22,-0.247l0.219,-0.247l0.217,-0.249l0.215,-0.25l0.214,-0.252l0.213,-0.253l0.211,-0.254l0.209,-0.255l0.208,-0.257l0.207,-0.258l0.205,-0.259l0.203,-0.261l0.202,-0.261l0.201,-0.263l0.199,-0.265l0.197,-0.265l0.196,-0.266l0.194,-0.268l0.192,-0.269l0.191,-0.271l0.19,-0.271l0.188,-0.273l0.186,-0.273l0.185,-0.275l0.183,-0.276l0.181,-0.278l0.18,-0.278l0.178,-0.28l0.176,-0.28l0.175,-0.282l0.173,-0.283l0.172,-0.284l0.17,-0.285l0.168,-0.287l0.166,-0.287l0.165,-0.289l0.163,-0.289l0.162,-0.291l0.159,-0.291l0.158,-0.293l0.156,-0.294l0.155,-0.295l0.153,-0.296l0.151,-0.297l0.149,-0.297l0.148,-0.299l0.145,-0.3l0.144,-0.301l0.143,-0.302l0.14,-0.303l0.139,-0.304l0.136,-0.305l0.135,-0.306l0.134,-0.307l0.131,-0.308l0.13,-0.309l0.127,-0.309l0.126,-0.311l0.124,-0.312l0.123,-0.312l0.12,-0.314l0.119,-0.314l0.116,-0.315l0.115,-0.316l0.113,-0.318l0.111,-0.317l0.109,-0.319l0.107,-0.32l0.105,-0.321l0.104,-0.321l0.101,-0.322l0.1,-0.323l0.097,-0.324l0.096,-0.325l0.093,-0.326l0.092,-0.326l0.09,-0.328l0.088,-0.328l0.085,-0.328l0.084,-0.33l0.082,-0.331l0.08,-0.331l0.078,-0.332l0.075,-0.333l0.074,-0.333l0.072,-0.335l0.07,-0.335l0.067,-0.335l0.066,-0.337l0.064,-0.337l0.061,-0.338l0.06,-0.339l0.057,-0.339l0.055,-0.34l0.054,-0.341l0.051,-0.342l0.049,-0.342l0.047,-0.343l0.045,-0.343l0.042,-0.345l0.041,-0.345l0.038,-0.345l0.037,-0.346l0.034,-0.347l0.032,-0.348l0.03,-0.348l0.027,-0.349l0.026,-0.349l0.023,-0.35l0.021,-0.35l0.019,-0.352l0.017,-0.351l0.015,-0.353l0.012,-0.353l0.01,-0.353l0.008,-0.354l0.005,-0.355l0.004,-0.355l0.001,-0.356l-0.001,-0.356l-0.004,-0.355l-0.005,-0.355l-0.008,-0.354l-0.01,-0.353l-0.012,-0.353l-0.015,-0.353l-0.017,-0.351l-0.019,-0.352l-0.021,-0.35l-0.023,-0.35l-0.026,-0.349l-0.027,-0.349l-0.03,-0.348l-0.032,-0.348l-0.034,-0.347l-0.037,-0.346l-0.038,-0.345l-0.041,-0.345l-0.042,-0.345l-0.045,-0.343l-0.047,-0.343l-0.049,-0.342l-0.051,-0.342l-0.054,-0.341l-0.055,-0.34l-0.057,-0.339l-0.06,-0.339l-0.061,-0.338l-0.064,-0.337l-0.066,-0.337l-0.067,-0.335l-0.07,-0.335l-0.072,-0.335l-0.074,-0.333l-0.075,-0.333l-0.078,-0.332l-0.08,-0.331l-0.082,-0.331l-0.084,-0.33l-0.085,-0.328l-0.088,-0.328l-0.09,-0.328l-0.092,-0.326l-0.093,-0.326l-0.096,-0.325l-0.097,-0.324l-0.1,-0.323l-0.101,-0.322l-0.104,-0.321l-0.105,-0.321l-0.107,-0.32l-0.109,-0.319l-0.111,-0.318l-0.113,-0.317l-0.115,-0.316l-0.116,-0.315l-0.119,-0.314l-0.12,-0.314l-0.123,-0.312l-0.124,-0.312l-0.126,-0.311l-0.127,-0.309l-0.13,-0.309l-0.131,-0.308l-0.134,-0.307l-0.135,-0.306l-0.136,-0.305l-0.139,-0.304l-0.14,-0.303l-0.143,-0.302l-0.144,-0.301l-0.145,-0.3l-0.148,-0.299l-0.149,-0.297l-0.151,-0.297l-0.153,-0.296l-0.155,-0.295l-0.156,-0.294l-0.158,-0.293l-0.159,-0.291l-0.162,-0.291l-0.163,-0.289l-0.165,-0.289l-0.166,-0.287l-0.168,-0.287l-0.17,-0.285l-0.172,-0.284l-0.173,-0.283l-0.175,-0.282l-0.176,-0.28l-0.178,-0.28l-0.18,-0.278l-0.181,-0.278l-0.183,-0.276l-0.185,-0.275l-0.186,-0.273l-0.188,-0.273l-0.19,-0.271l-0.191,-0.271l-0.192,-0.269l-0.194,-0.268l-0.196,-0.266l-0.197,-0.266l-0.199,-0.264l-0.201,-0.263l-0.202,-0.261l-0.203,-0.261l-0.205,-0.259l-0.207,-0.258l-0.208,-0.257l-0.209,-0.255l-0.211,-0.254l-0.213,-0.253l-0.214,-0.252l-0.215,-0.25l-0.217,-0.249l-0.219,-0.247l-0.22,-0.247l-0.221,-0.245l-0.223,-0.243l-0.224,-0.243l-0.226,-0.241l-0.227,-0.239l-0.228,-0.238l-0.23,-0.237l-0.231,-0.236l-0.233,-0.234l-0.234,-0.233l-0.236,-0.231l-0.237,-0.23l-0.238,-0.228l-0.239,-0.227l-0.241,-0.226l-0.243,-0.224l-0.243,-0.223l-0.245,-0.221l-0.247,-0.22l-0.247,-0.219l-0.249,-0.217l-0.25,-0.215l-0.252,-0.214l-0.253,-0.213l-0.254,-0.211l-0.255,-0.209l-0.257,-0.208l-0.258,-0.207l-0.259,-0.205l-0.261,-0.203l-0.261,-0.202l-0.263,-0.201l-0.264,-0.199l-0.266,-0.197l-0.266,-0.196l-0.268,-0.194l-0.269,-0.192l-0.271,-0.191l-0.271,-0.19l-0.273,-0.188l-0.273,-0.186l-0.275,-0.185l-0.276,-0.183l-0.278,-0.181l-0.278,-0.18l-0.28,-0.178l-0.28,-0.176l-0.282,-0.175l-0.283,-0.173l-0.284,-0.172l-0.285,-0.17l-0.287,-0.168l-0.287,-0.166l-0.289,-0.165l-0.289,-0.163l-0.291,-0.162l-0.291,-0.159l-0.293,-0.158l-0.294,-0.156l-0.295,-0.155l-0.296,-0.153l-0.297,-0.151l-0.297,-0.149l-0.299,-0.148l-0.3,-0.145l-0.301,-0.144l-0.302,-0.143l-0.303,-0.14l-0.304,-0.139l-0.305,-0.136l-0.306,-0.135l-0.307,-0.134l-0.308,-0.131l-0.309,-0.13l-0.309,-0.127l-0.311,-0.126l-0.312,-0.124l-0.312,-0.123l-0.314,-0.12l-0.314,-0.119l-0.315,-0.116l-0.316,-0.115l-0.318,-0.113l-0.317,-0.111l-0.319,-0.109l-0.32,-0.107l-0.321,-0.105l-0.321,-0.104l-0.322,-0.101l-0.323,-0.1l-0.324,-0.097l-0.325,-0.096l-0.326,-0.093l-0.326,-0.092l-0.328,-0.09l-0.328,-0.088l-0.328,-0.085l-0.33,-0.084l-0.331,-0.082l-0.331,-0.08l-0.332,-0.078l-0.333,-0.075l-0.333,-0.074l-0.335,-0.072l-0.335,-0.07l-0.335,-0.067l-0.337,-0.066l-0.337,-0.064l-0.338,-0.061l-0.339,-0.06l-0.339,-0.057l-0.34,-0.055l-0.341,-0.054l-0.342,-0.051l-0.342,-0.049l-0.343,-0.047l-0.343,-0.045l-0.345,-0.042l-0.345,-0.041l-0.345,-0.038l-0.346,-0.037l-0.347,-0.034l-0.348,-0.032l-0.348,-0.03l-0.349,-0.027l-0.349,-0.026l-0.35,-0.023l-0.35,-0.021l-0.352,-0.019l-0.351,-0.017l-0.353,-0.015l-0.353,-0.012l-0.353,-0.01l-0.354,-0.008l-0.355,-0.005l-0.355,-0.004l-0.356,-0.001l-0.356,0.001Z" style="fill:#de5833;"/><path d="M78.603,32.08l-5.273,20.742l14.355,0l5.332,-20.742l9.375,0l-5.332,20.742l14.297,0l0,8.965l-16.465,0l-5.742,23.028l14.648,0l0,8.964l-16.933,0l-6.094,24.141l-9.375,0l6.152,-24.141l-14.414,0l-6.152,24.141l-9.316,0l6.093,-24.141l-15.117,0l0,-8.964l17.403,0l5.742,-23.028l-15.586,0l0,-8.965l17.754,0l5.273,-20.742l9.375,0ZM85.517,61.787l-14.355,0l-5.742,23.028l14.414,0l5.683,-23.028Z" style="fill:#686564;fill-rule:nonzero;"/></svg>