<?xml version="1.0" standalone="no"?><!DOCTYPE svg PUBLIC "-//W3C//DTD SVG 1.1//EN" "http://www.w3.org/Graphics/SVG/1.1/DTD/svg11.dtd"><svg width="100%" height="100%" viewBox="0 0 165 200" version="1.1" xmlns="http://www.w3.org/2000/svg" xmlns:xlink="http://www.w3.org/1999/xlink" xml:space="preserve" style="fill-rule:evenodd;clip-rule:evenodd;stroke-linejoin:round;stroke-miterlimit:1.41421;"><g id="g20"><path id="path26" d="M0,218.875l0,-209.18c0,-5.353 4.29,-9.696 9.578,-9.696l83.73,0l71.693,72.572l0,146.304c0,5.353 -4.291,9.696 -9.578,9.696l-145.845,0c-5.288,0 -9.578,-4.343 -9.578,-9.696Z" style="fill:#2b2b2b;"/><path id="path32" d="M93.308,-0.001l71.693,72.572l-62.115,0c-5.288,0 -9.578,-4.343 -9.578,-9.695l0,-62.877Z" style="fill:#525252;"/><path id="path38" d="M47.099,167.117c0,3.104 -1.116,5.612 -3.349,7.511c-1.913,1.651 -4.704,2.482 -8.374,2.501l-4.867,0l0,15.016l-4.849,0l0,-35.009l9.716,0c3.67,0 6.461,0.825 8.374,2.476c2.233,1.968 3.349,4.47 3.349,7.505ZM39.98,171.802c1.399,-1.054 2.101,-2.615 2.101,-4.685c0,-2.064 -0.702,-3.6 -2.101,-4.603c-1.273,-0.908 -2.942,-1.366 -4.993,-1.366l-4.478,0l0,11.969l4.478,0c2.07,0 3.732,-0.438 4.993,-1.315Z" style="fill:#e6e6e6;fill-rule:nonzero;"/><path id="path44" d="M75.613,161.694c3.576,3.321 5.363,7.632 5.363,12.946c0,5.308 -1.787,9.626 -5.363,12.947c-3.274,3.034 -7.583,4.558 -12.921,4.558l-10.424,0l0,-35.009l10.424,0c5.351,0 9.66,1.517 12.921,4.558ZM76.008,174.628c0,-4.064 -1.367,-7.41 -4.114,-10.038c-2.264,-2.159 -5.332,-3.245 -9.202,-3.245l-5.576,0l0,26.534l5.576,0c3.883,0 6.95,-1.08 9.202,-3.245c2.747,-2.641 4.114,-5.974 4.114,-10.006Z" style="fill:#e6e6e6;fill-rule:nonzero;"/><path id="path50" d="M105.821,157.136l0,4.114l-14.339,0l0,11.67l13.486,0l0,4.108l-13.486,0l0,15.117l-4.848,0l0,-35.009l19.187,0Z" style="fill:#e6e6e6;fill-rule:nonzero;"/></g></svg>